<svg xmlns="http://www.w3.org/2000/svg" viewBox="-779.972 41 34.5 38">
  <defs>
    <style>
      .cls-1 {
        fill: #d5a86c;
      }

      .cls-2 {
        fill: #ffd;
      }

      .cls-3 {
        fill: #583318;
      }
    </style>
  </defs>
  <g id="noun_215018_cc" transform="translate(-810 13)">
    <g id="Group_1134" data-name="Group 1134" transform="translate(30.028 28.004)">
      <circle id="Ellipse_62" data-name="Ellipse 62" class="cls-1" cx="16.5" cy="16.5" r="16.5" transform="translate(0.972 4.996)"/>
      <circle id="Ellipse_61" data-name="Ellipse 61" class="cls-2" cx="16.5" cy="16.5" r="16.5" transform="translate(0.972 -0.004)"/>
      <path id="Path_790" data-name="Path 790" class="cls-3" d="M21.85,0A17.286,17.286,0,0,0,4.6,17.25v3.534a17.25,17.25,0,0,0,34.5-.038V17.212A17.278,17.278,0,0,0,21.85,0ZM7.678,27.7a15.971,15.971,0,0,1-.836-2.014,15.03,15.03,0,0,0,.836,1.292Zm1.862,2.964c-.266-.3-.494-.646-.722-.95V28.535a6.828,6.828,0,0,0,.722.76Zm2.622,2.546c-.494-.38-.988-.836-1.444-1.254V30.4c.456.38.95.76,1.444,1.1Zm2.7,1.71c-.532-.266-1.026-.57-1.52-.874V32.182c.494.266.988.532,1.52.76Zm3.04,1.14A15.812,15.812,0,0,1,16,35.45V33.474a15.682,15.682,0,0,0,1.9.57Zm3.42.494a21.316,21.316,0,0,1-2.242-.228V34.272a21.316,21.316,0,0,0,2.242.228Zm3.42-.266a14.457,14.457,0,0,1-2.242.266v-2.09a21.317,21.317,0,0,0,2.242-.228Zm3.078-.912a15.959,15.959,0,0,1-1.9.646V33.968a15.682,15.682,0,0,0,1.9-.57Zm2.7-1.406a12.1,12.1,0,0,1-1.52.874V32.9a11.579,11.579,0,0,0,1.52-.8ZM33.1,31.84a15.279,15.279,0,0,1-1.444,1.292V31.384c.494-.342.988-.722,1.444-1.1Zm1.862-2.28c-.228.342-.456.646-.684.95v-1.33c.228-.228.456-.494.684-.76Zm1.178-2.052v-.646c.266-.38.494-.76.722-1.14A14.619,14.619,0,0,1,36.136,27.509ZM21.85,33.018A15.787,15.787,0,1,1,37.656,17.25,15.843,15.843,0,0,1,21.85,33.018Z" transform="translate(-4.6)"/>
      <path id="Path_791" data-name="Path 791" class="cls-3" d="M29.022,10.6A13.232,13.232,0,0,0,15.8,23.822v.608c0,.114.038.342.038.494a.482.482,0,0,0,.038.228h0a13.211,13.211,0,0,0,26.293-.038h0v-.038c0-.152.038-.266.038-.418h0c0-.266.038-.57.038-.836A13.232,13.232,0,0,0,29.022,10.6ZM40.953,24.544v.228c0,.114-.038.228-.038.3a11.975,11.975,0,0,1-23.785.266h0a.742.742,0,0,0-.038-.266c-.038-.3-.038-.608-.076-.912a11.972,11.972,0,0,1,23.937.38Z" transform="translate(-11.544 -6.572)"/>
      <path id="Path_792" data-name="Path 792" class="cls-3" d="M46.2,24.175a3.565,3.565,0,0,0-2.891-3.26V19.1H41.982v1.753H40.506V19.1H39.184v1.753H37v1.322h0v9.78h0v1.322h2.245v1.753h1.322V33.278h1.476v1.753h1.322V33.216a3.6,3.6,0,0,0,2.891-3.26h0V29.71h0a3.894,3.894,0,0,0-1.568-2.645,3.58,3.58,0,0,0,1.476-2.645h0V24.3c.031-.031.031-.062.031-.123Zm-3.537,3.568a2.125,2.125,0,1,1,0,4.244H38.322V27.742h4.336V26.42H38.353V22.175H42.69A2.256,2.256,0,0,1,44.935,24.3,2.256,2.256,0,0,1,42.69,26.42v1.322Z" transform="translate(-23.6 -9.967)"/>
    </g>
  </g>
</svg>
