<svg xmlns="http://www.w3.org/2000/svg" xmlns:xlink="http://www.w3.org/1999/xlink" viewBox="8 638 22 22">
  <defs>
    <style>
      .cls-1 {
        fill: none;
      }

      .cls-2 {
        clip-path: url(#clip-path);
      }

      .cls-3 {
        fill: #573317;
      }
    </style>
    <clipPath id="clip-path">
      <path id="Path_508" data-name="Path 508" class="cls-1" d="M0-592.691H22v22H0Z" transform="translate(0 592.691)"/>
    </clipPath>
  </defs>
  <g id="Group_648" data-name="Group 648" transform="translate(8 638)">
    <g id="Group_647" data-name="Group 647" class="cls-2">
      <g id="Group_643" data-name="Group 643" transform="translate(15.25 1.6)">
        <path id="Path_504" data-name="Path 504" class="cls-3" d="M-9.728-36.317a.705.705,0,0,0,.375.1.746.746,0,0,0,.65-.375.766.766,0,0,0,.075-.575.707.707,0,0,0-.35-.45.706.706,0,0,0-.375-.1.746.746,0,0,0-.65.375.766.766,0,0,0-.075.575.775.775,0,0,0,.35.45" transform="translate(10.103 37.717)"/>
      </g>
      <g id="Group_644" data-name="Group 644" transform="translate(18.9 5.25)">
        <path id="Path_505" data-name="Path 505" class="cls-3" d="M-19.455-38.911a.705.705,0,0,0,.375-.1.765.765,0,0,0,.275-1.025.746.746,0,0,0-.65-.375.706.706,0,0,0-.375.1.707.707,0,0,0-.35.45.766.766,0,0,0,.075.575.812.812,0,0,0,.65.375" transform="translate(20.205 40.411)"/>
      </g>
      <g id="Group_645" data-name="Group 645" transform="translate(10 4.2)">
        <path id="Path_506" data-name="Path 506" class="cls-3" d="M-25.94-186.134a.384.384,0,0,1-.375-.375.385.385,0,0,1,.375-.375.385.385,0,0,1,.375.375.384.384,0,0,1-.375.375m1-7.175h-2v6.8a1,1,0,0,0,1,1h6.25a1,1,0,0,0,1-1,1,1,0,0,0-1-1h-5.25Z" transform="translate(26.94 193.309)"/>
      </g>
      <g id="Group_646" data-name="Group 646" transform="translate(0 0)">
        <path id="Path_507" data-name="Path 507" class="cls-3" d="M-544.75-259.4a1,1,0,0,0-1,1,9.184,9.184,0,0,1-1.2,4.5,9.08,9.08,0,0,1-3.3,3.3,9.184,9.184,0,0,1-4.5,1.2,9.184,9.184,0,0,1-4.5-1.2,9.081,9.081,0,0,1-3.3-3.3,9.184,9.184,0,0,1-1.2-4.5,9.184,9.184,0,0,1,1.2-4.5,9.081,9.081,0,0,1,3.3-3.3,9.177,9.177,0,0,1,3.5-1.15v.034h2V-268.4a1,1,0,0,0-1-1,10.927,10.927,0,0,0-5.5,1.475,11.1,11.1,0,0,0-4.025,4.025,10.928,10.928,0,0,0-1.475,5.5,10.928,10.928,0,0,0,1.475,5.5,11.1,11.1,0,0,0,4.025,4.025,10.928,10.928,0,0,0,5.5,1.475,10.928,10.928,0,0,0,5.5-1.475,11.1,11.1,0,0,0,4.025-4.025,10.927,10.927,0,0,0,1.475-5.5,1,1,0,0,0-1-1" transform="translate(565.75 269.405)"/>
      </g>
    </g>
  </g>
</svg>
