<svg xmlns="http://www.w3.org/2000/svg" xmlns:xlink="http://www.w3.org/1999/xlink" viewBox="3642 236 46 46">
  <defs>
    <style>
      .cls-1 {
        fill: none;
      }

      .cls-2 {
        fill: #83dd7f;
        stroke: #583318;
        stroke-width: 2px;
      }

      .cls-3 {
        clip-path: url(#clip-path);
      }

      .cls-4 {
        fill: #583318;
      }

      .cls-5 {
        stroke: none;
      }
    </style>
    <clipPath id="clip-path">
      <path id="Path_118" data-name="Path 118" class="cls-1" d="M0-269.529H26.357V-250H0Z" transform="translate(0 269.529)"/>
    </clipPath>
  </defs>
  <g id="Group_169" data-name="Group 169" transform="translate(3610 91)">
    <g id="ellipse-3" class="cls-2" transform="translate(32 145)">
      <circle class="cls-5" cx="23" cy="23" r="23"/>
      <circle class="cls-1" cx="23" cy="23" r="22"/>
    </g>
    <g id="Group_156" data-name="Group 156" transform="translate(41.707 159)">
      <g id="Group_155" data-name="Group 155" class="cls-3">
        <g id="Group_154" data-name="Group 154" transform="translate(0 0)">
          <path id="Path_117" data-name="Path 117" class="cls-4" d="M-323.134-.128a.977.977,0,0,0-.564.3c-5.25,5.493-10.323,11.452-15.509,16.927l-7.594-5.81a.979.979,0,0,0-1.373.183.979.979,0,0,0,.183,1.372h0l8.3,6.344a.976.976,0,0,0,1.3-.107c5.451-5.7,10.71-11.925,16.1-17.568a.976.976,0,0,0-.018-1.38.976.976,0,0,0-.82-.267" transform="translate(348.376 0.138)"/>
        </g>
      </g>
    </g>
  </g>
</svg>
