<svg xmlns="http://www.w3.org/2000/svg" xmlns:xlink="http://www.w3.org/1999/xlink" viewBox="-88.137 44.327 40.793 40.647">
  <defs>
    <style>
      .cls-1 {
        fill: none;
      }

      .cls-2 {
        fill: #ffd;
        stroke: #583318;
      }

      .cls-3 {
        clip-path: url(#clip-path);
      }

      .cls-4 {
        fill: #583318;
      }
    </style>
    <clipPath id="clip-path">
      <path id="Path_776" data-name="Path 776" class="cls-1" d="M0,0H25.087V12.544H0Z"/>
    </clipPath>
  </defs>
  <g id="Group_1027" data-name="Group 1027" transform="translate(-394.425 2.562)">
    <g id="Group_1024" data-name="Group 1024" transform="translate(306.788 42.266)">
      <g id="Group_1023" data-name="Group 1023" transform="translate(0 0)">
        <g id="Group_1022" data-name="Group 1022" transform="translate(0 0)">
          <path id="Path_774" data-name="Path 774" class="cls-2" d="M-215.854-29.13a1.556,1.556,0,0,0,1.76,1.244l1.074-.171a1.1,1.1,0,0,1,1.332,1.261l-.112,1.082a1.556,1.556,0,0,0,1.338,1.689l1.079.139a1.1,1.1,0,0,1,.923,1.585l-.412,1.007a1.556,1.556,0,0,0,.808,2l1,.437a1.1,1.1,0,0,1,.439,1.781l-.679.85a1.556,1.556,0,0,0,.213,2.145l.832.7a1.1,1.1,0,0,1-.081,1.833l-.891.624a1.557,1.557,0,0,0-.4,2.118l.6.906a1.1,1.1,0,0,1-.594,1.736l-1.03.348a1.556,1.556,0,0,0-.981,1.919l.322,1.039a1.1,1.1,0,0,1-1.059,1.5l-1.087.043A1.556,1.556,0,0,0-212.944.246l.016,1.087a1.1,1.1,0,0,1-1.438,1.139l-1.055-.264a1.557,1.557,0,0,0-1.863,1.084l-.291,1.048a1.1,1.1,0,0,1-1.7.688l-.938-.551a1.557,1.557,0,0,0-2.093.516l-.574.923a1.1,1.1,0,0,1-1.825.181l-.744-.793a1.556,1.556,0,0,0-2.153-.095l-.811.724a1.1,1.1,0,0,1-1.8-.341l-.491-.97a1.557,1.557,0,0,0-2.04-.7l-.982.466a1.1,1.1,0,0,1-1.633-.835l-.2-1.069a1.556,1.556,0,0,0-1.76-1.244l-1.074.171A1.1,1.1,0,0,1-239.726.152l.112-1.082a1.556,1.556,0,0,0-1.338-1.689l-1.079-.139a1.1,1.1,0,0,1-.923-1.585l.412-1.006a1.556,1.556,0,0,0-.808-2l-1-.437a1.1,1.1,0,0,1-.439-1.781l.679-.85a1.556,1.556,0,0,0-.212-2.145l-.832-.7a1.1,1.1,0,0,1,.081-1.833l.891-.624a1.556,1.556,0,0,0,.4-2.118l-.6-.906a1.1,1.1,0,0,1,.594-1.736l1.03-.348a1.556,1.556,0,0,0,.981-1.919l-.322-1.039a1.1,1.1,0,0,1,1.059-1.5l1.086-.043a1.556,1.556,0,0,0,1.482-1.565l-.016-1.087a1.1,1.1,0,0,1,1.438-1.139l1.055.265a1.556,1.556,0,0,0,1.863-1.084l.291-1.048a1.1,1.1,0,0,1,1.7-.688l.938.551a1.557,1.557,0,0,0,2.093-.516l.574-.923a1.1,1.1,0,0,1,1.825-.181l.744.793a1.556,1.556,0,0,0,2.153.095l.811-.724a1.1,1.1,0,0,1,1.8.341l.491.97a1.556,1.556,0,0,0,2.039.7l.982-.466a1.1,1.1,0,0,1,1.633.835Z" transform="translate(245.603 33.144)"/>
        </g>
      </g>
    </g>
    <g id="Group_1026" data-name="Group 1026" class="cls-3" transform="translate(314.437 56.142)">
      <g id="Group_1025" data-name="Group 1025" transform="translate(0 0)">
        <path id="Path_775" data-name="Path 775" class="cls-4" d="M22,2.553a.157.157,0,1,1-.314,0V1.66a.157.157,0,1,1,.314,0Zm0,2.083a.157.157,0,0,1-.314,0V3.743a.157.157,0,0,1,.314,0Zm0,2.083a.157.157,0,0,1-.314,0V5.826a.157.157,0,1,1,.314,0ZM22,8.8a.157.157,0,1,1-.314,0V7.908a.157.157,0,0,1,.314,0Zm0,2.083a.157.157,0,0,1-.314,0V9.991a.157.157,0,1,1,.314,0Zm-9.458-.221a4.39,4.39,0,1,1,4.39-4.39,4.39,4.39,0,0,1-4.39,4.39M3.712,2.553a.157.157,0,0,1-.314,0V1.66a.157.157,0,0,1,.314,0Zm0,2.083a.157.157,0,0,1-.314,0V3.743a.157.157,0,0,1,.314,0Zm0,2.083a.157.157,0,0,1-.314,0V5.826a.157.157,0,1,1,.314,0Zm0,2.083a.157.157,0,0,1-.314,0V7.908a.157.157,0,0,1,.314,0Zm0,2.083a.157.157,0,0,1-.314,0V9.991a.157.157,0,0,1,.314,0ZM25.087,4.6V1.254A1.254,1.254,0,0,0,23.833,0H22V.47a.157.157,0,1,1-.314,0V0H3.712V.47A.157.157,0,0,1,3.4.47V0H1.254A1.254,1.254,0,0,0,0,1.254V4.631A1.664,1.664,0,0,1,.314,4.6a1.672,1.672,0,1,1,0,3.344A1.668,1.668,0,0,1,0,7.912v3.377a1.254,1.254,0,0,0,1.254,1.254H3.4v-.47a.157.157,0,0,1,.314,0v.47H21.689v-.47a.157.157,0,0,1,.314,0v.47h1.831a1.254,1.254,0,0,0,1.254-1.254V7.944a1.672,1.672,0,1,1,0-3.344"/>
      </g>
    </g>
  </g>
</svg>
