<svg xmlns="http://www.w3.org/2000/svg" viewBox="3245.813 240 36 36">
  <defs>
    <style>
      .cls-1 {
        fill: #583318;
      }
    </style>
  </defs>
  <g id="Group_235" data-name="Group 235" transform="translate(3245.813 240)">
    <g id="Group_234" data-name="Group 234" transform="translate(0)">
      <g id="Group_231" data-name="Group 231" transform="translate(31.068 8.338)">
        <path id="Path_172" data-name="Path 172" class="cls-1" d="M-20.651-41.585a1.276,1.276,0,0,1-1.134-.608l-.01-.017a1.391,1.391,0,0,1-.152-1.085,1.277,1.277,0,0,1,.624-.79l.012-.006.011-.007a1.285,1.285,0,0,1,.676-.2,1.347,1.347,0,0,1,1.157.687l.005.009a1.273,1.273,0,0,1,.158.981,1.373,1.373,0,0,1-.636.844,1.526,1.526,0,0,1-.712.188" transform="translate(21.996 44.293)"/>
      </g>
      <g id="Group_232" data-name="Group 232" transform="translate(24.958 2.23)">
        <path id="Path_173" data-name="Path 173" class="cls-1" d="M-20.888-41.8a1.422,1.422,0,0,1-.7-.178,1.412,1.412,0,0,1-.486-1.886,1.4,1.4,0,0,1,1.194-.657,1.472,1.472,0,0,1,.7.179,1.366,1.366,0,0,1,.473,1.842l-.007.013a1.338,1.338,0,0,1-1.174.688" transform="translate(22.248 44.517)"/>
      </g>
      <g id="Group_233" data-name="Group 233">
        <path id="Path_174" data-name="Path 174" class="cls-1" d="M-276.406-552.813a17.883,17.883,0,0,1-12.728-5.272,17.883,17.883,0,0,1-5.272-12.729,17.883,17.883,0,0,1,5.272-12.728,17.883,17.883,0,0,1,12.728-5.272,1.349,1.349,0,0,1,1.364,1.364,1.349,1.349,0,0,1-1.364,1.364,15.29,15.29,0,0,0-15.272,15.272,15.29,15.29,0,0,0,15.272,15.273,15.29,15.29,0,0,0,15.272-15.273,1.349,1.349,0,0,1,1.364-1.364,1.349,1.349,0,0,1,1.364,1.364,17.883,17.883,0,0,1-5.272,12.729,17.883,17.883,0,0,1-12.729,5.272" transform="translate(294.406 588.814)"/>
      </g>
    </g>
  </g>
</svg>
