<svg xmlns="http://www.w3.org/2000/svg" xmlns:xlink="http://www.w3.org/1999/xlink" viewBox="-132.012 229.167 26.375 16.049">
  <defs>
    <style>
      .cls-1 {
        fill: none;
      }

      .cls-2 {
        clip-path: url(#clip-path);
      }

      .cls-3 {
        fill: #fff;
      }
    </style>
    <clipPath id="clip-path">
      <path id="path" class="cls-1" d="M0-528.384H26.375v16.049H0Z" transform="translate(0 528.384)"/>
    </clipPath>
  </defs>
  <g id="group" transform="translate(-132.012 229.167)">
    <g id="group-2" data-name="group" class="cls-2">
      <g id="group-3" data-name="group" transform="translate(6.314 0.031)">
        <path id="path-2" data-name="path" class="cls-3" d="M-14.893-29.787h2.208a.478.478,0,0,0,.467-.467.478.478,0,0,0-.467-.467h-2.208a.478.478,0,0,0-.467.467.478.478,0,0,0,.467.467" transform="translate(15.36 30.72)"/>
      </g>
      <g id="group-4" data-name="group" transform="translate(2.55 0)">
        <path id="path-3" data-name="path" class="cls-3" d="M-728.787-387.229a.478.478,0,0,1-.467.467h-1.369a2.367,2.367,0,0,0-2.022-1.182,2.3,2.3,0,0,0-2.022,1.182h-.218v-8.46h3.266a.531.531,0,0,1,.4.218l2.333,3.7a.335.335,0,0,1,.062.249v3.826Zm.684-4.6-2.364-3.7a1.37,1.37,0,0,0-1.182-.653h-3.3v-1.773a1.394,1.394,0,0,0-1.4-1.4h-6.967a.478.478,0,0,0-.466.467.478.478,0,0,0,.466.467h6.967a.478.478,0,0,1,.467.467v11.166h-9.144a2.367,2.367,0,0,0-2.022-1.182,2.3,2.3,0,0,0-2.022,1.182h-1.151a.478.478,0,0,1-.467-.467v-1.617a.478.478,0,0,0-.466-.467.478.478,0,0,0-.467.467v1.617a1.394,1.394,0,0,0,1.4,1.4h.84v.218a2.35,2.35,0,0,0,2.333,2.333,2.35,2.35,0,0,0,2.333-2.333v-.218h9.766v.218a2.35,2.35,0,0,0,2.333,2.333,2.35,2.35,0,0,0,2.333-2.333v-.218h1.089a1.394,1.394,0,0,0,1.4-1.4v-3.795a2.4,2.4,0,0,0-.311-.778" transform="translate(751.616 399.359)"/>
      </g>
      <g id="group-5" data-name="group" transform="translate(20.061 4.821)">
        <path id="path-4" data-name="path" class="cls-3" d="M-30.78-89.361v-1.866h.56l1.182,1.866Zm1.213-2.582a.532.532,0,0,0-.4-.218h-1.306a.478.478,0,0,0-.467.467v2.8a.478.478,0,0,0,.467.467H-28.2a.478.478,0,0,0,.467-.467.4.4,0,0,0-.124-.311Z" transform="translate(31.744 92.16)"/>
      </g>
      <g id="group-6" data-name="group" transform="translate(0.809 1.804)">
        <path id="path-5" data-name="path" class="cls-3" d="M-14.893-29.787h9.549a.478.478,0,0,0,.467-.467.478.478,0,0,0-.467-.467h-9.549a.478.478,0,0,0-.467.467.458.458,0,0,0,.467.467" transform="translate(15.36 30.72)"/>
      </g>
      <g id="group-7" data-name="group" transform="translate(3.732 7.091)">
        <path id="path-6" data-name="path" class="cls-3" d="M0-14.893a.478.478,0,0,0,.467.467h9.549a.478.478,0,0,0,.467-.467.478.478,0,0,0-.467-.467H.467A.478.478,0,0,0,0-14.893" transform="translate(0 15.36)"/>
      </g>
      <g id="group-8" data-name="group" transform="translate(0 7.091)">
        <path id="path-7" data-name="path" class="cls-3" d="M-86.382-14.893a.478.478,0,0,0-.467-.467h-1.773a.478.478,0,0,0-.467.467.478.478,0,0,0,.467.467h1.773a.458.458,0,0,0,.467-.467" transform="translate(89.088 15.36)"/>
      </g>
      <g id="group-9" data-name="group" transform="translate(4.541 4.541)">
        <path id="path-8" data-name="path" class="cls-3" d="M-169.785-29.787a.478.478,0,0,0,.467-.467.478.478,0,0,0-.467-.467h-4.852a.478.478,0,0,0-.467.467.478.478,0,0,0,.467.467Z" transform="translate(175.104 30.72)"/>
      </g>
    </g>
  </g>
</svg>
