<svg xmlns="http://www.w3.org/2000/svg" viewBox="25.295 1352.795 25.911 25.911">
  <defs>
    <style>
      .cls-1 {
        fill: #fff;
      }
    </style>
  </defs>
  <path id="Path_53" data-name="Path 53" class="cls-1" d="M34.955,974.362a12.955,12.955,0,1,0,12.955,12.955A12.976,12.976,0,0,0,34.955,974.362Zm0,2.776a10.179,10.179,0,1,1-10.179,10.179A10.158,10.158,0,0,1,34.955,977.138Zm0,1.851a1.388,1.388,0,0,0-1.388,1.388v6.94a1.386,1.386,0,0,0,.694,1.2l5.205,3.007a1.386,1.386,0,1,0,1.388-2.4l-4.511-2.6v-6.145A1.388,1.388,0,0,0,34.955,978.989Z" transform="translate(3.295 378.432)"/>
</svg>
