<svg xmlns="http://www.w3.org/2000/svg" viewBox="426.017 778.017 25.966 25.966">
  <defs>
    <style>
      .cls-1 {
        fill: #fff;
      }
    </style>
  </defs>
  <g id="noun_714309_cc" transform="translate(496.684 738.684) rotate(180)">
    <g id="Group_80" data-name="Group 80" transform="translate(44.701 -65.299)">
      <path id="Path_63" data-name="Path 63" class="cls-1" d="M12.986,25.966a2.182,2.182,0,0,0,1.339-.527L25.361,15.052a2.23,2.23,0,0,0,.162-2.84,2.028,2.028,0,0,0-2.84.02l-7.75,7.3V1.948a1.947,1.947,0,1,0-3.895,0V19.535l-7.75-7.3a2.146,2.146,0,0,0-2.84-.02,2.2,2.2,0,0,0,.162,2.84L11.647,25.438a1.873,1.873,0,0,0,1.339.527Z" transform="translate(0 25.966) rotate(-90)"/>
    </g>
  </g>
</svg>
