<svg xmlns="http://www.w3.org/2000/svg" xmlns:xlink="http://www.w3.org/1999/xlink" viewBox="87.373 58.626 200.589 66.374">
  <defs>
    <style>
      .cls-1 {
        fill: none;
      }

      .cls-2 {
        clip-path: url(#clip-path);
      }

      .cls-3 {
        fill: #583318;
      }
    </style>
    <clipPath id="clip-path">
      <path id="path" class="cls-1" d="M0-201.626H200.589v66.374H0Z" transform="translate(0 201.626)"/>
    </clipPath>
  </defs>
  <g id="group" transform="translate(87.373 58.626)">
    <g id="group-2" data-name="group" class="cls-2">
      <g id="group-3" data-name="group" transform="translate(3.784 3.785)">
        <path id="path-2" data-name="path" class="cls-3" d="M-276.316-30.621q-.1.566-.209,1l-.7,2.3a34.094,34.094,0,0,1-1.67,3.883,24.853,24.853,0,0,1-1.95,3.252,11.013,11.013,0,0,1-2.01,2.2,2.969,2.969,0,0,1-1.845.781,1.118,1.118,0,0,1-.554-.231,1.628,1.628,0,0,1-.489-.608,3.018,3.018,0,0,1-.27-1.029,4.531,4.531,0,0,1,.109-1.44,19.384,19.384,0,0,1,.879-2.634q.585-1.438,1.327-2.894t1.6-2.818a17.62,17.62,0,0,1,1.778-2.387,8.148,8.148,0,0,1,1.84-1.574,2.362,2.362,0,0,1,1.732-.372.712.712,0,0,1,.431.562,4.281,4.281,0,0,1,.1.941,6.173,6.173,0,0,1-.1,1.068m-32.36,27.273a10.912,10.912,0,0,1-2.889,1.9,2.693,2.693,0,0,1-1.766.3.811.811,0,0,1-.6-.676,1.671,1.671,0,0,1,.465-1.082A3.708,3.708,0,0,1-312.1-3.983l.006.052,5.363-2.748.527.472a16.4,16.4,0,0,1-2.468,2.859m-61.318-11.385a.455.455,0,0,1,.105-.25l-.035.163a15.294,15.294,0,0,1,1.791-3.737,18.837,18.837,0,0,1,2.3-2.92A7.086,7.086,0,0,1-363.8-23.02q.883-.385.963.346a2.655,2.655,0,0,1-.116.886,8.512,8.512,0,0,1-.582,1.464,24.349,24.349,0,0,1-2.77,3.5,18.612,18.612,0,0,1-3.621,2.957,7.2,7.2,0,0,1-.067-.865M-311.07-21.1a.457.457,0,0,1,.105-.249l-.035.162a15.318,15.318,0,0,1,1.791-3.737,18.813,18.813,0,0,1,2.3-2.92,7.088,7.088,0,0,1,2.028-1.542q.883-.386.964.345a2.661,2.661,0,0,1-.116.886,8.567,8.567,0,0,1-.582,1.465,24.323,24.323,0,0,1-2.769,3.5A18.625,18.625,0,0,1-311-20.235a7.322,7.322,0,0,1-.067-.866m38.2,1.941c-.749.45-1.168.281-1.254-.511a3.28,3.28,0,0,1,.131-.993q.165-.678.446-1.5.386-1.311,1.031-2.941t1.293-3.208q.65-1.578,1.252-2.859a16.776,16.776,0,0,1,1.01-1.907,2.629,2.629,0,0,0,.456-.922,2.583,2.583,0,0,0,.043-.825,1.931,1.931,0,0,0-1-1.452,3.071,3.071,0,0,0-2-.445,3.457,3.457,0,0,0-1.253.4,3.2,3.2,0,0,0-1.086.964l.005.052-.466.579a8.4,8.4,0,0,0-1.252-.817,4.478,4.478,0,0,0-1.27-.5,11.13,11.13,0,0,0-3.7,1.22,17.814,17.814,0,0,0-3.492,2.44,24.548,24.548,0,0,0-3.082,3.3,24.628,24.628,0,0,0-2.424,3.753,17.561,17.561,0,0,0-1.427,3.652c-.272.4-.562.808-.875,1.226a31.87,31.87,0,0,1-2.3,2.708,26.021,26.021,0,0,1-3.063,2.738l-.02-1.162.158-.493q.14-.65.411-1.578t.6-2q.333-1.067.718-2.167t.805-2.1q.585-1.438,1.239-2.726t1.134-2.238l.725-1.612.006.052q.118-.382.212-.737a2.122,2.122,0,0,0,.048-.772,1.673,1.673,0,0,0-.919-1.408,3.238,3.238,0,0,0-1.857-.3,4.4,4.4,0,0,0-1.736.584,2.791,2.791,0,0,0-1.221,1.428l-.046.058a21.537,21.537,0,0,0-2.511,5.64c-.27.9-.534,1.811-.795,2.737-.39.6-.788,1.2-1.2,1.816a30.208,30.208,0,0,1-2.74,3.522,14.255,14.255,0,0,1-2.955,2.515,5.1,5.1,0,0,1-3.191.821q-1.358-.329-1.567-2.264a24.514,24.514,0,0,0,5.618-3.569,20.016,20.016,0,0,0,4.268-4.8,8.08,8.08,0,0,0,.933-2.137,5.829,5.829,0,0,0,.189-2.163,3.481,3.481,0,0,0-1.2-2.329,4.44,4.44,0,0,0-3.258-.785,9.319,9.319,0,0,0-4.226,1.276,13.989,13.989,0,0,0-3.421,2.856,20.255,20.255,0,0,0-2.648,3.883,29.959,29.959,0,0,0-1.376,2.984,3.432,3.432,0,0,1-.643.355,3.123,3.123,0,0,1-2,.136,5.7,5.7,0,0,1-1.537-.759,2.445,2.445,0,0,1-1.012-1.292,13.489,13.489,0,0,0,1.728-2.858,4.221,4.221,0,0,0,.4-1.921,1.469,1.469,0,0,0-.876-1.254,3.315,3.315,0,0,0-1.924-.189,4.393,4.393,0,0,0-1.891.865A7.936,7.936,0,0,0-326.4-27.4a6.224,6.224,0,0,0-1.014,2.12,3.691,3.691,0,0,0,.016,2.114,4.025,4.025,0,0,1-.484,2.856,21.069,21.069,0,0,1-2.026,3.287,25.187,25.187,0,0,1-2.395,2.8,19.164,19.164,0,0,1-1.538,1.435q-1.124.863-1.651.39a2.292,2.292,0,0,1-.64-1.518,6.568,6.568,0,0,1-.017-1.135c.026-.408.064-.8.111-1.176s.1-.716.154-1.021a4.335,4.335,0,0,1,.164-.679q.4-1.154.856-2.367t.913-2.32q.462-1.107.915-2.056a13.9,13.9,0,0,1,.862-1.574,2.8,2.8,0,0,0,.446-1.741,1.949,1.949,0,0,0-.976-1.455,2.968,2.968,0,0,0-1.979-.447,3.362,3.362,0,0,0-2.391,1.369,14.522,14.522,0,0,0-.916,1.553q-.551,1.039-1.12,2.369t-1.17,2.877q-.6,1.546-1.127,3.031c-.158.563-.283,1.163-.392,1.784-.521.9-1.054,1.748-1.6,2.531a12.9,12.9,0,0,1-1.83,2.155q-.892.81-1.569.408a1.258,1.258,0,0,1-.543-1.1,5.9,5.9,0,0,1,.231-1.771,18.378,18.378,0,0,1,.724-2.115q.459-1.133.959-2.14a17.523,17.523,0,0,1,1-1.774,8.347,8.347,0,0,1,.831-1.121.685.685,0,0,0,.038-.877,4.178,4.178,0,0,0-.879-1.042,14.444,14.444,0,0,0-1.272-1,8.785,8.785,0,0,0-1.133-.7,2.532,2.532,0,0,0-1.428-.243,12.115,12.115,0,0,0-1.743.268,6.884,6.884,0,0,1-.935.154l-1.046.113a15.425,15.425,0,0,0,.763-1.749,3.169,3.169,0,0,0,.222-1.373,3.4,3.4,0,0,0-.577-1.419,1.809,1.809,0,0,0-1.5-.632,3.35,3.35,0,0,0-1.617.7,7.431,7.431,0,0,0-1.5,1.511,9.41,9.41,0,0,0-1.115,1.919,4.37,4.37,0,0,0-.4,1.973,4.414,4.414,0,0,0,.253,1.612,3.8,3.8,0,0,0,.679,1.143l-.964,1.849-.133.24q-1.154,1.839-2.449,3.768a30.155,30.155,0,0,1-2.74,3.522,14.257,14.257,0,0,1-2.956,2.515,5.1,5.1,0,0,1-3.19.821q-1.359-.329-1.567-2.264a24.513,24.513,0,0,0,5.618-3.569,20.01,20.01,0,0,0,4.268-4.8,8.082,8.082,0,0,0,.933-2.137,5.838,5.838,0,0,0,.19-2.163,3.483,3.483,0,0,0-1.2-2.329,4.441,4.441,0,0,0-3.258-.785,9.317,9.317,0,0,0-4.226,1.277,13.986,13.986,0,0,0-3.421,2.855,20.272,20.272,0,0,0-2.648,3.883,28.989,28.989,0,0,0-1.863,4.3c-.021.079-.04.155-.06.233a25.851,25.851,0,0,1-1.963,2.577,25.026,25.026,0,0,1-4.26,3.9,23.915,23.915,0,0,1-4.991,2.761,21.969,21.969,0,0,1-5.53,1.444,12.6,12.6,0,0,1-4.837-.218A9.373,9.373,0,0,1-401.7-5.648a9.5,9.5,0,0,1-2.458-3.172,12.737,12.737,0,0,1-1.172-4.237,18.483,18.483,0,0,1,.369-5.885,27,27,0,0,1,2.322-6.413,36.04,36.04,0,0,1,6.768-9.326,23.054,23.054,0,0,1,8.766-5.523,9.239,9.239,0,0,1,1.662-.524q.8-.166,1.534-.245a5.448,5.448,0,0,1,3.851.642,3.5,3.5,0,0,1,1.412,2.545,5.9,5.9,0,0,1-.174,2.055,9.308,9.308,0,0,1-.872,2.21,13.413,13.413,0,0,1-1.462,2.142,12.132,12.132,0,0,1-1.89,1.844,1.661,1.661,0,0,0-.777,1.618,2.575,2.575,0,0,0,.536,1.291,3.342,3.342,0,0,0,1.135.962,3.571,3.571,0,0,0,1.445.4,2.19,2.19,0,0,0,1.459-.449,18.191,18.191,0,0,0,2.667-2.245,17.887,17.887,0,0,0,2.241-2.755,12.861,12.861,0,0,0,1.473-3.015,7.9,7.9,0,0,0,.407-3.086,12.307,12.307,0,0,0-.546-2.85,8.514,8.514,0,0,0-1.276-2.507,7.883,7.883,0,0,0-2.059-1.92,9.254,9.254,0,0,0-2.906-1.193l.052-.006a18.015,18.015,0,0,0-5.475-.254,21.692,21.692,0,0,0-7.2,2.1,36.236,36.236,0,0,0-6.54,4.092,42.644,42.644,0,0,0-5.524,5.172,38.709,38.709,0,0,0-4.052,5.331,33.471,33.471,0,0,0-3.164,8.17,22.879,22.879,0,0,0-.66,7.847,18.239,18.239,0,0,0,1.649,5.958,13.736,13.736,0,0,0,3.54,4.616A14.137,14.137,0,0,0-401.3.524,17.034,17.034,0,0,0-394.3.879,21.745,21.745,0,0,0-387.445-1a26.052,26.052,0,0,0,5.889-3.757,30.356,30.356,0,0,0,4.639-4.919q.678,4.248,6.088,4.58a9.1,9.1,0,0,0,1.69-.024,9.138,9.138,0,0,0,4.049-1.442,17.33,17.33,0,0,0,3.435-2.963,28.887,28.887,0,0,0,2.915-3.859q1.332-2.1,2.431-4.176a5.2,5.2,0,0,0,.506-1.159l.487-.905.748-1.4q.522-.057.886-.122t.776-.163q.779-.136,1.4-.231a1.78,1.78,0,0,1,.958.055.575.575,0,0,1,.305.628,3.871,3.871,0,0,1-.559,1.436,22.542,22.542,0,0,0-1.8,4.109,7.717,7.717,0,0,0-.138,4.352,4.1,4.1,0,0,0,1.428,2.2,4.412,4.412,0,0,0,2.459.977A5.617,5.617,0,0,0-345.19-8.9a14.3,14.3,0,0,0,3.125-3.141c.138-.186.271-.382.406-.575a5.99,5.99,0,0,0,1.311,2.267A4.531,4.531,0,0,0-336.4-9.08a8.676,8.676,0,0,0,3.089-.784,9.325,9.325,0,0,0,2.642-1.978,22.206,22.206,0,0,0,2.621-3.4q1.336-2.075,3.07-5.119a7.549,7.549,0,0,0,5.557,1.991,6.47,6.47,0,0,0,1.47-.337c-.011.06-.023.122-.033.182a7.906,7.906,0,0,0-.062,2.122q.5,4.6,6.141,4.943a9.077,9.077,0,0,0,1.69-.024,9.129,9.129,0,0,0,4.049-1.443,17.34,17.34,0,0,0,3.436-2.963c.243-.271.481-.549.716-.832l-.208.883q-.307,1.092-.657,2.24t-.669,2.135l-2.518,1.171q-2.117.969-4.108,1.872a37.511,37.511,0,0,0-3.434,1.746,7.478,7.478,0,0,0-2.551,2.339,3.782,3.782,0,0,0-.64,2.4A3.332,3.332,0,0,0-316.058-.2a4.726,4.726,0,0,0,1.675,1.3,6.875,6.875,0,0,0,2.42.611,8.313,8.313,0,0,0,2.928-.316,10.331,10.331,0,0,0,3.7-1.749,13.829,13.829,0,0,0,2.811-2.869,20.494,20.494,0,0,0,2.119-3.641,43.453,43.453,0,0,0,1.618-4.116,35.687,35.687,0,0,0,4.05-2.9,27.454,27.454,0,0,0,3.525-3.554q.553,2.773,4.124,3.125a8.184,8.184,0,0,0,4.537-1.337,15.172,15.172,0,0,0,3.765-3.581,6.5,6.5,0,0,0,1.174,2.544,2.919,2.919,0,0,0,2.079,1.124,6.272,6.272,0,0,0,3.747-1.3l.016-.012a7.439,7.439,0,0,1-1.1-2.292" transform="translate(411.916 45.648)"/>
      </g>
      <g id="group-4" data-name="group" transform="translate(123.64 4.812)">
        <path id="path-3" data-name="path" class="cls-3" d="M-1.014-12.808a2.946,2.946,0,0,0,1.022.894,3.329,3.329,0,0,0,1.312.387,3.022,3.022,0,0,0,1.4-.231,4.152,4.152,0,0,0,1.733-1.589,6.981,6.981,0,0,0,1.039-2.625,2.965,2.965,0,0,0-.37-1.706,2.757,2.757,0,0,0-1.091-1.046,3.32,3.32,0,0,0-1.468-.37,2.954,2.954,0,0,0-1.447.315,4,4,0,0,0-1.214,1,8.6,8.6,0,0,0-.849,1.441A4.084,4.084,0,0,0-1.5-14.1a2.674,2.674,0,0,0,.484,1.3" transform="translate(1.512 19.093)"/>
      </g>
      <g id="group-5" data-name="group" transform="translate(154.309 17.931)">
        <path id="path-4" data-name="path" class="cls-3" d="M-63.619-19.411a.36.36,0,0,1,.083-.2l-.028.128a12.053,12.053,0,0,1,1.411-2.945,14.843,14.843,0,0,1,1.815-2.3,5.583,5.583,0,0,1,1.6-1.215q.7-.3.759.273a2.092,2.092,0,0,1-.091.7,6.748,6.748,0,0,1-.459,1.154,19.174,19.174,0,0,1-2.182,2.757,14.671,14.671,0,0,1-2.853,2.329,5.707,5.707,0,0,1-.053-.682m11.263-3.946q-.076-.7-.488-.656a2.038,2.038,0,0,0-1.2.879q-.925,1.475-1.965,3.026a23.743,23.743,0,0,1-2.159,2.775,11.226,11.226,0,0,1-2.328,1.981,4.016,4.016,0,0,1-2.514.647q-1.07-.259-1.234-1.783A19.3,19.3,0,0,0-59.815-19.3a15.746,15.746,0,0,0,3.363-3.78,6.366,6.366,0,0,0,.735-1.684,4.6,4.6,0,0,0,.149-1.7,2.744,2.744,0,0,0-.948-1.836,3.5,3.5,0,0,0-2.568-.618,7.346,7.346,0,0,0-3.329,1.006,11.019,11.019,0,0,0-2.694,2.25,15.921,15.921,0,0,0-2.087,3.059,22.79,22.79,0,0,0-1.468,3.388q-.137.5-.239.968c-.086.14-.17.279-.257.419q-.586.938-1.183,1.774a12.6,12.6,0,0,1-1.084,1.346q-1.161,1.21-1.583.776T-72.631-17q.128-.347.3-.866a7.978,7.978,0,0,1,.413-1q.331-.785.673-1.677t.619-1.8a16.094,16.094,0,0,0,.435-1.756,5.254,5.254,0,0,0,.087-1.51,1.8,1.8,0,0,0-.6-1.269,2.514,2.514,0,0,0-1.98-.578,6.615,6.615,0,0,0-2.95,1.236,19.112,19.112,0,0,0-3.014,2.576,7.123,7.123,0,0,0-.22-1.456,1.929,1.929,0,0,0-.5-.926,2.634,2.634,0,0,0-2.012-.491,6.284,6.284,0,0,0-2.538,1A17.943,17.943,0,0,0-86.7-23.356a2.854,2.854,0,0,0-.281-1.449,1.631,1.631,0,0,0-1.048-.825,2.332,2.332,0,0,0-1.943.335,3.5,3.5,0,0,0-1.274,1.513c-.327.8-.631,1.637-.925,2.486a7.424,7.424,0,0,1,.494,2.666A7.454,7.454,0,0,1-94.489-12.8c-.157.788-.273,1.481-.344,2.071a.958.958,0,0,0,.179.689,1.851,1.851,0,0,0,.577.521,2.657,2.657,0,0,0,.8.309,2.684,2.684,0,0,0,.86.054,1.289,1.289,0,0,0,1.225-1.008l0,.042q.111-.512.363-1.456t.608-2.087q.355-1.143.778-2.439t.871-2.553a5.129,5.129,0,0,1,.545-1.122,10.239,10.239,0,0,1,.8-1.087,11.868,11.868,0,0,1,.916-.974,10.409,10.409,0,0,1,.858-.738q.954-.812,1.419-.362a1.461,1.461,0,0,1,.2,1.478l-.826,2.382q-.638,1.819-1.21,3.652a23.8,23.8,0,0,0-.853,3.864.809.809,0,0,0,.217.664,2.469,2.469,0,0,0,.637.493,2.917,2.917,0,0,0,.846.3,3,3,0,0,0,.922.047,1.48,1.48,0,0,0,.815-.359,2.082,2.082,0,0,0,.533-.662q.143-.6.507-1.867t.756-2.645a8.211,8.211,0,0,1,.415-1.17q.267-.611.562-1.352.239-.484.5-1.138t.493-1.22a7.7,7.7,0,0,1,1.257-1.678,16.6,16.6,0,0,1,1.457-1.365q.954-.812,1.44-.364t.181,1.481l-.7,2.034q-.356.956-.745,1.977t-.658,2.009a19.324,19.324,0,0,0-.42,1.9,5.05,5.05,0,0,0-.03,1.649,2.117,2.117,0,0,0,1.274,1.571,4.451,4.451,0,0,0,2.175.265,6.97,6.97,0,0,0,2.084-.579,6.049,6.049,0,0,0,1.623-.988,11.921,11.921,0,0,0,1.047-1.3c.2-.289.4-.59.6-.9q.83,2.7,4.642,2.936a7.189,7.189,0,0,0,1.332-.019,7.2,7.2,0,0,0,3.19-1.136,13.672,13.672,0,0,0,2.707-2.335,22.78,22.78,0,0,0,2.3-3.04Q-53.7-20-52.837-21.639a2.91,2.91,0,0,0,.481-1.718" transform="translate(94.839 28.937)"/>
      </g>
      <g id="group-6" data-name="group" transform="translate(145.969 24.199)">
        <path id="path-5" data-name="path" class="cls-3" d="M-16.46-8.23A4.039,4.039,0,0,0-20.5-12.269,4.039,4.039,0,0,0-24.537-8.23,4.039,4.039,0,0,0-20.5-4.191,4.039,4.039,0,0,0-16.46-8.23" transform="translate(24.537 12.269)"/>
      </g>
      <g id="group-7" data-name="group" transform="translate(150.524 14.145)">
        <path id="path-6" data-name="path" class="cls-3" d="M-2.023-44.644a3.762,3.762,0,0,0,.7,2.4A4.617,4.617,0,0,0,.1-40.943a5.466,5.466,0,0,0,1.645.641,5.508,5.508,0,0,0,1.755.1,4.053,4.053,0,0,0,3.234-2.076l.292-.535.463.4a5.322,5.322,0,0,0,.9.622,5.713,5.713,0,0,0,1.654.605,5.764,5.764,0,0,0,1.785.087,4.321,4.321,0,0,0,2.336-1.02,4.866,4.866,0,0,0,1.226-1.563l.359-.743.491.584a4.732,4.732,0,0,0,1.88,1.354,7.276,7.276,0,0,0,3.521.452,9.8,9.8,0,0,0,2.919-.8,9.524,9.524,0,0,0,1.923-1.1l.261-.2.284.163a9.4,9.4,0,0,0,4.114,1.122,10.067,10.067,0,0,0,1.828-.028,10.006,10.006,0,0,0,4.415-1.573,16.541,16.541,0,0,0,3.262-2.809,25.714,25.714,0,0,0,2.579-3.412c.727-1.145,1.4-2.3,2-3.437a5.6,5.6,0,0,0,.813-3.374,3.315,3.315,0,0,0-2.848-3.132l-.36-.045-.065-.357a5.542,5.542,0,0,0-1.83-3.221,5.866,5.866,0,0,0-3.984-1.321c-.19,0-.386.006-.6.019a10.147,10.147,0,0,0-4.579,1.391A13.846,13.846,0,0,0,28.536-61.5l-.469.521-.332-.618A4.218,4.218,0,0,0,26.7-62.858a5.324,5.324,0,0,0-4.071-1.209,9.371,9.371,0,0,0-4.23,1.709l-.417.29-.282-.193a5.513,5.513,0,0,0-3.763-.867,8.907,8.907,0,0,0-3.711,1.407l-.417.264-.264-.165a4.7,4.7,0,0,0-1.179-.525l-.125-.034a5.172,5.172,0,0,0-4.175.741A6.275,6.275,0,0,0,1.8-58.731l-.03.071q-.039.1-.079.2a7.917,7.917,0,0,1,2.736,6,8,8,0,0,1-6.452,7.816m4.96,5.461a6.62,6.62,0,0,1-1.4-.153,6.442,6.442,0,0,1-1.94-.757A5.593,5.593,0,0,1-2.13-41.672a4.751,4.751,0,0,1-.855-3.308l.068-.525.373-.053a7,7,0,0,0,5.986-6.9A6.94,6.94,0,0,0,.8-57.925L.51-58.152l.133-.34c.072-.185.145-.368.217-.546l.035-.083a7.253,7.253,0,0,1,2.617-3.135,6.16,6.16,0,0,1,4.963-.885l.17.045a5.746,5.746,0,0,1,1.156.477,9.774,9.774,0,0,1,4.032-1.493,6.558,6.558,0,0,1,4.141.849,10.246,10.246,0,0,1,4.552-1.788,6.3,6.3,0,0,1,4.809,1.432,5.15,5.15,0,0,1,.915.982,14.769,14.769,0,0,1,3.019-2.371,11.134,11.134,0,0,1,5.022-1.526c.235-.014.45-.02.659-.02a6.821,6.821,0,0,1,4.633,1.565,6.515,6.515,0,0,1,2.081,3.448,4.287,4.287,0,0,1,3.354,3.946,6.55,6.55,0,0,1-.93,3.953c-.608,1.147-1.295,2.326-2.035,3.492a26.672,26.672,0,0,1-2.679,3.544,17.532,17.532,0,0,1-3.457,2.976A10.985,10.985,0,0,1,33.069-41.9a11.112,11.112,0,0,1-2,.032,10.584,10.584,0,0,1-4.253-1.1,10.964,10.964,0,0,1-1.86,1.03,10.786,10.786,0,0,1-3.214.883,8.255,8.255,0,0,1-4-.518A5.742,5.742,0,0,1,15.962-42.7,6.025,6.025,0,0,1,14.8-41.369a5.3,5.3,0,0,1-2.873,1.251,6.732,6.732,0,0,1-2.087-.1A6.693,6.693,0,0,1,7.9-40.929a6.422,6.422,0,0,1-.61-.384A5.048,5.048,0,0,1,3.6-39.219a6.154,6.154,0,0,1-.668.036" transform="translate(3.016 66.553)"/>
      </g>
      <g id="group-8" data-name="group" transform="translate(0 0)">
        <path id="path-7" data-name="path" class="cls-3" d="M-67.119-24.819a6.977,6.977,0,0,0-.741.044c-.364.04-.759.1-1.174.189a5.482,5.482,0,0,0-.978.313l-.234.088a19.414,19.414,0,0,0-7.332,4.641A32.43,32.43,0,0,0-83.623-11.2a23.291,23.291,0,0,0-1.994,5.489,14.814,14.814,0,0,0-.307,4.684,9.023,9.023,0,0,0,.812,2.987,5.7,5.7,0,0,0,1.483,1.925,5.6,5.6,0,0,0,2.209,1.1,8.973,8.973,0,0,0,3.387.121,18.263,18.263,0,0,0,4.583-1.2,20.216,20.216,0,0,0,4.2-2.325A21.347,21.347,0,0,0-65.631-1.73a21.781,21.781,0,0,0,1.366-1.752,33.073,33.073,0,0,1,2.03-4.646,25,25,0,0,1,1.6-2.628q-.4.3-.8.579A5.963,5.963,0,0,1-65.3-9.053a7.327,7.327,0,0,1-2.953-.821,7.114,7.114,0,0,1-2.4-2.035,6.309,6.309,0,0,1-1.28-3.168,5.419,5.419,0,0,1,2.27-5.053,8.387,8.387,0,0,0,1.245-1.229,9.741,9.741,0,0,0,1.051-1.535,5.617,5.617,0,0,0,.523-1.313,2.705,2.705,0,0,0,.09-.6c-.091-.009-.209-.015-.357-.015m58.744,20.8.394.165a9.515,9.515,0,0,0,2.513.68l.351.043.072.345a7.639,7.639,0,0,0,4.8,5.756l.854.341-.756.524A9.436,9.436,0,0,0-2.9,6.634a6.524,6.524,0,0,0-1.037,4.161A6.1,6.1,0,0,0-2.6,13.984,7.532,7.532,0,0,0,.049,16.061a9.682,9.682,0,0,0,3.4.877,11.089,11.089,0,0,0,3.88-.4A13.162,13.162,0,0,0,12,14.315a16.711,16.711,0,0,0,3.379-3.447,23.424,23.424,0,0,0,2.409-4.137c.478-1.052.928-2.156,1.337-3.279l.056-.153.137-.09A38.133,38.133,0,0,0,22.691.715c.381-.316.764-.653,1.138-1l.28-.26.322.205A9.028,9.028,0,0,0,28.281.917l.279.013A10.971,10.971,0,0,0,34.615-.858c.432-.28.861-.591,1.276-.924l.327-.262.312.28a5.663,5.663,0,0,0,3.3,1.433l.276.013A9.059,9.059,0,0,0,45.5-2.158a7.959,7.959,0,0,1-3.512-6.6,7.966,7.966,0,0,1,5.684-7.629c.18-.41.357-.8.527-1.16a14.968,14.968,0,0,1,.792-1.523,5.314,5.314,0,0,0,.878-1.911,5.387,5.387,0,0,0,.089-1.71,4.726,4.726,0,0,0-2.31-3.529,5.861,5.861,0,0,0-3.781-.849,6.262,6.262,0,0,0-2.267.712,5.824,5.824,0,0,0-.542.328l-.221.15-.247-.1a6.138,6.138,0,0,0-1.233-.375l-.443-.082-.446.061a13.974,13.974,0,0,0-4.632,1.518c-.45.238-.915.51-1.383.809L30.48-22.792l.1-.032L29-21.3c-.321.309-.611.6-.886.891l-.686.725-.159-.986a4.954,4.954,0,0,0-.136-.59l-.157-.538.554-.088a6.015,6.015,0,0,0,.97-.238l1.917-.644,1.416-2.052c.017-.024.034-.047.051-.072a9.788,9.788,0,0,0,1.458-3.665l.034-.182.009-.185a5.735,5.735,0,0,0-.77-3.292A5.536,5.536,0,0,0,30.418-34.3a6.11,6.11,0,0,0-2.69-.685l-.157,0a5.713,5.713,0,0,0-2.638.625l-.113.061a6.789,6.789,0,0,0-2.053,1.741,11.2,11.2,0,0,0-1.125,1.886,6.786,6.786,0,0,0-.829,3.775,5.578,5.578,0,0,0,.455,1.7l.257.572-.616.116a7.3,7.3,0,0,0-2.3.86,5.532,5.532,0,0,0-1.975,1.92l-.335.546-.443-.463c-.136-.142-.28-.28-.431-.411a6.719,6.719,0,0,0-4.562-1.492c-.232,0-.465.007-.713.022a12.134,12.134,0,0,0-5.475,1.661,16.841,16.841,0,0,0-4.1,3.422A22.078,22.078,0,0,0-.81-16.685l-.65.918-.236-1.1a4.232,4.232,0,0,0-2.4-3,6.066,6.066,0,0,0-3.533-.419l-.033.005A7.185,7.185,0,0,0-10.765-18.9a10.79,10.79,0,0,0-2,1.944l-.528.666-.317-.788a4.941,4.941,0,0,0-1.945-2.291,5.755,5.755,0,0,0-3.789-.873,6.158,6.158,0,0,0-4.313,2.451l-.061.082a17.013,17.013,0,0,0-1.105,1.861c-.383.723-.76,1.516-1.154,2.425l-.279.646-.513-.483q-.088-.083-.18-.165a17.243,17.243,0,0,0-1.517-1.193,11.73,11.73,0,0,0-1.456-.893,5.072,5.072,0,0,0-2.243-.563l-.4-.011-.07-.4a6.286,6.286,0,0,0-.957-2.3l-.16-.25-.209-.211a4.6,4.6,0,0,0-3.316-1.467,4.354,4.354,0,0,0-.466.025,6.109,6.109,0,0,0-2.986,1.24A10.252,10.252,0,0,0-42.8-17.371c-.243.323-.473.664-.683,1.011l-.261.43-.425-.268a7.182,7.182,0,0,0-3.886-.989c-.233,0-.466.007-.713.022A12.131,12.131,0,0,0-54.245-15.5a16.852,16.852,0,0,0-4.1,3.422,23.162,23.162,0,0,0-3.015,4.416,32.082,32.082,0,0,0-1.992,4.571l-.022.066-.04.057a22.871,22.871,0,0,1-1.471,1.89A22.344,22.344,0,0,1-68.67,2.381a21.177,21.177,0,0,1-4.409,2.439,19.274,19.274,0,0,1-4.83,1.26,9.931,9.931,0,0,1-3.765-.147A6.561,6.561,0,0,1-84.263,4.64,6.669,6.669,0,0,1-86,2.39a10.015,10.015,0,0,1-.906-3.314,15.79,15.79,0,0,1,.323-5A24.317,24.317,0,0,1-84.5-11.651a33.439,33.439,0,0,1,6.234-8.6,20.4,20.4,0,0,1,7.706-4.871l.173-.065a6.475,6.475,0,0,1,1.157-.368c.445-.092.872-.161,1.268-.2a8,8,0,0,1,.847-.05,3.006,3.006,0,0,1,.93.111l.106.036.08.077a.793.793,0,0,1,.218.533,3.185,3.185,0,0,1-.108,1.081,6.578,6.578,0,0,1-.615,1.547,10.686,10.686,0,0,1-1.157,1.692,9.426,9.426,0,0,1-1.409,1.386,4.463,4.463,0,0,0-1.886,4.161A5.341,5.341,0,0,0-69.875-12.5,6.131,6.131,0,0,0-67.8-10.749a6.347,6.347,0,0,0,2.559.711c.108.007.214.01.319.01A5.028,5.028,0,0,0-62-10.986a21.076,21.076,0,0,0,3.054-2.572,20.8,20.8,0,0,0,2.59-3.186,15.739,15.739,0,0,0,1.79-3.673,10.721,10.721,0,0,0,.541-4.167,15.143,15.143,0,0,0-.671-3.5,11.359,11.359,0,0,0-1.7-3.325,10.711,10.711,0,0,0-2.785-2.6,12.069,12.069,0,0,0-3.777-1.566l.016-.068L-63-35.649l-.01.048a20.95,20.95,0,0,0-6.321-.292,24.592,24.592,0,0,0-8.129,2.367A39.221,39.221,0,0,0-84.5-29.12a45.645,45.645,0,0,0-5.885,5.513,41.6,41.6,0,0,0-4.343,5.721l-.076.129a36.441,36.441,0,0,0-3.427,8.85A25.748,25.748,0,0,0-98.952-.1a21.108,21.108,0,0,0,1.906,6.864A16.58,16.58,0,0,0-92.79,12.31a16.98,16.98,0,0,0,6.365,3.339,19.837,19.837,0,0,0,8.1.444,24.641,24.641,0,0,0,7.7-2.119,28.958,28.958,0,0,0,6.517-4.158c.677-.572,1.345-1.186,1.985-1.826l.319-.319.347.289a10.772,10.772,0,0,0,6.074,2.171A11.941,11.941,0,0,0-53.2,10.1a11.952,11.952,0,0,0,5.274-1.878,20.2,20.2,0,0,0,3.99-3.438,31.716,31.716,0,0,0,3-3.924l.712-1.1.191,1.292a11.117,11.117,0,0,0,.219,1.1l.01.039a6.856,6.856,0,0,0,2.376,3.657A7.182,7.182,0,0,0-33.44,7.435l.088.006c.148.008.3.012.454.012a8.4,8.4,0,0,0,4.981-1.642,15.411,15.411,0,0,0,1.323-1.066l.307-.277.326.254a7.222,7.222,0,0,0,4.551,1.46c.285,0,.583-.013.863-.037A11.508,11.508,0,0,0-16.464,5.1a12.129,12.129,0,0,0,3.446-2.557A25.05,25.05,0,0,0-10.056-1.3C-9.6-2-9.109-2.8-8.6-3.651ZM4.268,17.959c-.3,0-.6-.012-.9-.037a10.677,10.677,0,0,1-3.748-.971A8.514,8.514,0,0,1-3.373,14.6a7.065,7.065,0,0,1-1.55-3.7A7.481,7.481,0,0,1-3.746,6.118,9.853,9.853,0,0,1-1.4,3.535,8.67,8.67,0,0,1-5.934-2.241a10.5,10.5,0,0,1-2.032-.543c-.44.727-.863,1.406-1.259,2.022a26.053,26.053,0,0,1-3.083,3.986,13.114,13.114,0,0,1-3.73,2.761,12.468,12.468,0,0,1-4.428,1.143c-.3.027-.632.041-.944.041a8.266,8.266,0,0,1-4.827-1.425c-.361.31-.731.6-1.1.868a9.314,9.314,0,0,1-6.071,1.814l-.1-.007a8.16,8.16,0,0,1-4.529-1.8,7.824,7.824,0,0,1-2.713-4.177l-.012-.046,0-.012A32.257,32.257,0,0,1-43.2,5.442a21.2,21.2,0,0,1-4.186,3.6,12.925,12.925,0,0,1-5.706,2.032,12.952,12.952,0,0,1-2.361.037A12.013,12.013,0,0,1-61.737,9c-.563.548-1.145,1.076-1.733,1.573a29.951,29.951,0,0,1-6.74,4.3,25.607,25.607,0,0,1-8,2.2A20.888,20.888,0,0,1-86.7,16.6a17.97,17.97,0,0,1-6.731-3.535,17.563,17.563,0,0,1-4.508-5.871,22.092,22.092,0,0,1-2-7.184,26.717,26.717,0,0,1,.745-9.148,37.4,37.4,0,0,1,3.52-9.091l.1-.174a42.617,42.617,0,0,1,4.446-5.859A46.619,46.619,0,0,1-85.108-29.9a40.186,40.186,0,0,1,7.221-4.518,25.572,25.572,0,0,1,8.455-2.461,21.823,21.823,0,0,1,6.226.231v0l.069.016.323.062.415.082,0,.035a12.891,12.891,0,0,1,3.761,1.617,11.7,11.7,0,0,1,3.04,2.841,12.346,12.346,0,0,1,1.843,3.613,16.18,16.18,0,0,1,.715,3.726,11.708,11.708,0,0,1-.589,4.549,16.707,16.707,0,0,1-1.9,3.9q-.213.323-.439.642.6-.423,1.223-.794a13.116,13.116,0,0,1,5.918-1.8c.268-.016.52-.024.773-.024a8.422,8.422,0,0,1,3.986.894c.153-.233.314-.462.48-.683a11.215,11.215,0,0,1,2.269-2.274,7.081,7.081,0,0,1,3.469-1.43,5.383,5.383,0,0,1,.572-.031,5.573,5.573,0,0,1,4.017,1.759l.311.329.189.294a7.517,7.517,0,0,1,1.017,2.278,5.926,5.926,0,0,1,2.274.649,12.539,12.539,0,0,1,1.573.963c.448.314.881.646,1.29.991.307-.681.608-1.3.914-1.874a17.766,17.766,0,0,1,1.179-1.979l.07-.1a7.128,7.128,0,0,1,5-2.839A6.726,6.726,0,0,1-15.02-20.2a6.074,6.074,0,0,1,1.98,2.042,11.745,11.745,0,0,1,1.684-1.534,8.158,8.158,0,0,1,3.538-1.566l.038-.006a7.02,7.02,0,0,1,4.105.5,5.2,5.2,0,0,1,2.641,2.719q.421-.544.866-1.055a17.837,17.837,0,0,1,4.343-3.622,13.115,13.115,0,0,1,5.918-1.8c.268-.016.521-.024.773-.024a7.669,7.669,0,0,1,5.211,1.736l.059.052a6.5,6.5,0,0,1,1.982-1.756,8.388,8.388,0,0,1,2.03-.843,6.656,6.656,0,0,1-.317-1.438,7.735,7.735,0,0,1,.926-4.319,12.153,12.153,0,0,1,1.224-2.045,7.776,7.776,0,0,1,2.348-2l.152-.082a6.686,6.686,0,0,1,3.27-.732,7.1,7.1,0,0,1,3.123.8,6.514,6.514,0,0,1,2.584,2.446,6.7,6.7,0,0,1,.911,3.85l-.018.282-.039.214a11.047,11.047,0,0,1-.8,2.574,14.9,14.9,0,0,1,4.823-1.552l.6-.082.6.112a6.879,6.879,0,0,1,1.186.337c.134-.084.272-.164.412-.238a7.251,7.251,0,0,1,2.625-.822,6.837,6.837,0,0,1,4.408.993A5.7,5.7,0,0,1,50.941-22.8a6.381,6.381,0,0,1-.106,2.027,6.233,6.233,0,0,1-1.02,2.246,14.59,14.59,0,0,0-.722,1.4c-.2.417-.4.869-.609,1.35l-.1.219-.23.061a6.977,6.977,0,0,0-5.181,6.74,6.974,6.974,0,0,0,3.648,6.13l.684.372L46.1-1.371A10.032,10.032,0,0,1,40.11.669L39.738.652A6.757,6.757,0,0,1,36.188-.761c-.339.26-.687.5-1.035.731A11.947,11.947,0,0,1,28.56,1.918L28.185,1.9A10.234,10.234,0,0,1,24.227.69c-.3.271-.6.535-.9.786a39.018,39.018,0,0,1-3.33,2.469c-.4,1.094-.842,2.168-1.31,3.2a24.383,24.383,0,0,1-2.511,4.311,17.692,17.692,0,0,1-3.58,3.651A14.126,14.126,0,0,1,7.586,17.49a12.469,12.469,0,0,1-3.318.469" transform="translate(100.058 36.998)"/>
      </g>
      <g id="group-9" data-name="group" transform="translate(51.901 62.207)">
        <path id="path-8" data-name="path" class="cls-3" d="M-6.136-4.191q0-1.414-1.621-1.414h-.7v2.823h.772a1.661,1.661,0,0,0,1.146-.357,1.339,1.339,0,0,0,.4-1.052m.106-1.517a1.919,1.919,0,0,1,.6,1.5,2.018,2.018,0,0,1-.578,1.521,2.454,2.454,0,0,1-1.768.56H-9.147v-4.12h1.414a2.45,2.45,0,0,1,1.7.54" transform="translate(9.147 6.248)"/>
      </g>
      <g id="group-10" data-name="group" transform="translate(63.227 62.207)">
        <path id="path-9" data-name="path" class="cls-3" d="M-5.9,0V.654h-2.2v1.09h1.974v.619H-8.095v1.1h2.269V4.12H-8.79V0Z" transform="translate(8.79)"/>
      </g>
      <g id="group-11" data-name="group" transform="translate(73.463 62.107)">
        <path id="path-10" data-name="path" class="cls-3" d="M-3.225-1.309a.913.913,0,0,0-.5.124.414.414,0,0,0-.195.374.436.436,0,0,0,.195.383,2.948,2.948,0,0,0,.828.286A2.27,2.27,0,0,1-1.94.289a1.017,1.017,0,0,1,.321.816,1.081,1.081,0,0,1-.406.875,1.623,1.623,0,0,1-1.067.336,2.506,2.506,0,0,1-1.715-.666l.437-.524a1.963,1.963,0,0,0,1.3.542.884.884,0,0,0,.533-.144.452.452,0,0,0,.2-.383A.43.43,0,0,0-2.529.769,1.948,1.948,0,0,0-3.169.527a5.821,5.821,0,0,1-.689-.2A1.555,1.555,0,0,1-4.276.088a1,1,0,0,1-.365-.848,1.033,1.033,0,0,1,.415-.881A1.675,1.675,0,0,1-3.2-1.951a2.471,2.471,0,0,1,.784.129,2.052,2.052,0,0,1,.672.366l-.371.524a1.408,1.408,0,0,0-.5-.271,1.907,1.907,0,0,0-.616-.106" transform="translate(4.807 1.951)"/>
      </g>
      <g id="group-12" data-name="group" transform="translate(84.23 62.207)">
        <path id="path-11" data-name="path" class="cls-3" d="M-6.136-4.191q0-1.414-1.621-1.414h-.7v2.823h.772a1.661,1.661,0,0,0,1.146-.357,1.339,1.339,0,0,0,.4-1.052m.106-1.517a1.919,1.919,0,0,1,.6,1.5,2.018,2.018,0,0,1-.578,1.521,2.454,2.454,0,0,1-1.768.56H-9.147v-4.12h1.414a2.45,2.45,0,0,1,1.7.54" transform="translate(9.147 6.248)"/>
      </g>
      <g id="group-13" data-name="group" transform="translate(95.557 62.207)">
        <path id="path-12" data-name="path" class="cls-3" d="M-5.9,0V.654h-2.2v1.09h1.974v.619H-8.095v1.1h2.269V4.12H-8.79V0Z" transform="translate(8.79)"/>
      </g>
      <g id="group-14" data-name="group" transform="translate(114.185 62.107)">
        <path id="path-13" data-name="path" class="cls-3" d="M-3.854-3.482a.822.822,0,0,0,.177-.489.552.552,0,0,0-.189-.421.677.677,0,0,0-.477-.174.985.985,0,0,0-.843.518l-.56-.324a2.056,2.056,0,0,1,.6-.613,1.559,1.559,0,0,1,.843-.206,1.363,1.363,0,0,1,.9.327,1.1,1.1,0,0,1,.389.893,1.2,1.2,0,0,1-.165.607,4.1,4.1,0,0,1-.607.743l-.967.985h1.868v.666H-5.7v-.589L-4.45-2.817a6.636,6.636,0,0,0,.6-.666" transform="translate(5.746 5.191)"/>
      </g>
      <g id="group-15" data-name="group" transform="translate(124.427 62.107)">
        <path id="path-14" data-name="path" class="cls-3" d="M-1.867-2.077A2.219,2.219,0,0,0-2.111-.963,2.219,2.219,0,0,0-1.867.15.819.819,0,0,0-1.1.574.807.807,0,0,0-.346.153,2.258,2.258,0,0,0-.108-.963,2.263,2.263,0,0,0-.346-2.08.808.808,0,0,0-1.1-2.5a.819.819,0,0,0-.763.424m-.5,2.667A2.6,2.6,0,0,1-2.783-.963a2.6,2.6,0,0,1,.418-1.553A1.453,1.453,0,0,1-1.1-3.1a1.453,1.453,0,0,1,1.261.58A2.6,2.6,0,0,1,.576-.963,2.6,2.6,0,0,1,.157.589,1.453,1.453,0,0,1-1.1,1.17,1.453,1.453,0,0,1-2.365.589" transform="translate(2.783 3.097)"/>
      </g>
      <g id="group-16" data-name="group" transform="translate(135.022 62.207)">
        <path id="path-15" data-name="path" class="cls-3" d="M0,0H1.5V4.12H.837V.619H0Z"/>
      </g>
      <g id="group-17" data-name="group" transform="translate(144.168 62.131)">
        <path id="path-16" data-name="path" class="cls-3" d="M-3.272-4.4a.9.9,0,0,0-.6.2.635.635,0,0,0-.239.513.737.737,0,0,0,.23.543.789.789,0,0,0,.578.227.839.839,0,0,0,.577-.2.661.661,0,0,0,.23-.518A.746.746,0,0,0-2.7-4.174.753.753,0,0,0-3.272-4.4m.127-1.532a.916.916,0,0,0-.807.371,1.748,1.748,0,0,0-.265,1,1.48,1.48,0,0,1,.424-.309,1.307,1.307,0,0,1,.613-.144,1.271,1.271,0,0,1,.928.368,1.312,1.312,0,0,1,.374.978,1.271,1.271,0,0,1-.4.981A1.444,1.444,0,0,1-3.3-2.309a1.367,1.367,0,0,1-1.367-.884,2.931,2.931,0,0,1-.212-1.143A3.543,3.543,0,0,1-4.743-5.4a1.721,1.721,0,0,1,.371-.672,1.5,1.5,0,0,1,1.129-.483,1.934,1.934,0,0,1,1.211.419l-.348.512a1.324,1.324,0,0,0-.362-.212,1.065,1.065,0,0,0-.4-.094" transform="translate(4.878 6.552)"/>
      </g>
      <path id="path-17" data-name="path" class="cls-3" d="M40.972-6.254H1.5v-.658H40.972Z" transform="translate(-1.006 71.011)"/>
      <path id="path-18" data-name="path" class="cls-3" d="M527.4-6.254H487.927v-.658H527.4Z" transform="translate(-327.305 71.011)"/>
    </g>
  </g>
</svg>
