<svg xmlns="http://www.w3.org/2000/svg" xmlns:xlink="http://www.w3.org/1999/xlink" viewBox="890.884 62.126 197.567 65.374">
  <defs>
    <style>
      .cls-1 {
        fill: none;
      }

      .cls-2 {
        clip-path: url(#clip-path);
      }

      .cls-3 {
        clip-path: url(#clip-path-2);
      }

      .cls-4 {
        fill: #fff;
      }
    </style>
    <clipPath id="clip-path">
      <rect class="cls-1" width="197.567" height="65.374"/>
    </clipPath>
    <clipPath id="clip-path-2">
      <path id="path" class="cls-1" d="M0-201.626H197.567v65.374H0Z" transform="translate(0 201.626)"/>
    </clipPath>
  </defs>
  <g id="Repeat_Grid_1" data-name="Repeat Grid 1" class="cls-2" transform="translate(890.884 62.126)">
    <g id="group">
      <g id="group-2" data-name="group" class="cls-3">
        <g id="group-3" data-name="group" transform="translate(3.727 3.728)">
          <path id="path-2" data-name="path" class="cls-4" d="M-278.359-30.848q-.1.557-.206.986l-.693,2.263a33.569,33.569,0,0,1-1.645,3.824,24.433,24.433,0,0,1-1.92,3.2A10.85,10.85,0,0,1-284.8-18.4a2.928,2.928,0,0,1-1.818.769,1.1,1.1,0,0,1-.546-.228,1.6,1.6,0,0,1-.481-.6,2.969,2.969,0,0,1-.266-1.013,4.464,4.464,0,0,1,.107-1.418,19.108,19.108,0,0,1,.866-2.595q.576-1.416,1.307-2.85t1.575-2.775a17.357,17.357,0,0,1,1.752-2.351,8.032,8.032,0,0,1,1.812-1.55,2.328,2.328,0,0,1,1.706-.367.7.7,0,0,1,.424.553,4.213,4.213,0,0,1,.1.927,6.084,6.084,0,0,1-.094,1.052M-310.231-3.987a10.748,10.748,0,0,1-2.846,1.871,2.652,2.652,0,0,1-1.74.292.8.8,0,0,1-.593-.665,1.646,1.646,0,0,1,.458-1.066,3.652,3.652,0,0,1,1.345-1.057l.005.052,5.282-2.707.519.465a16.157,16.157,0,0,1-2.431,2.816M-370.625-15.2a.447.447,0,0,1,.1-.246l-.035.16a15.067,15.067,0,0,1,1.764-3.681,18.556,18.556,0,0,1,2.268-2.877,6.991,6.991,0,0,1,2-1.518q.87-.379.948.341a2.615,2.615,0,0,1-.114.872,8.384,8.384,0,0,1-.573,1.443,23.962,23.962,0,0,1-2.728,3.446,18.321,18.321,0,0,1-3.567,2.913,7.1,7.1,0,0,1-.066-.852m58.036-6.271a.451.451,0,0,1,.1-.246l-.035.16a15.085,15.085,0,0,1,1.764-3.681,18.5,18.5,0,0,1,2.268-2.876,6.978,6.978,0,0,1,2-1.519q.87-.379.949.34a2.622,2.622,0,0,1-.114.872,8.435,8.435,0,0,1-.574,1.442,23.923,23.923,0,0,1-2.727,3.447,18.347,18.347,0,0,1-3.567,2.913,7.223,7.223,0,0,1-.066-.853m37.62,1.911c-.738.443-1.15.278-1.235-.5a3.233,3.233,0,0,1,.129-.978q.162-.669.439-1.48.38-1.292,1.016-2.9t1.273-3.159q.64-1.554,1.233-2.816a16.569,16.569,0,0,1,1-1.879,2.591,2.591,0,0,0,.449-.908,2.545,2.545,0,0,0,.042-.812,1.9,1.9,0,0,0-.989-1.43,3.025,3.025,0,0,0-1.975-.438,3.4,3.4,0,0,0-1.234.394,3.147,3.147,0,0,0-1.069.949l.005.051-.459.571a8.274,8.274,0,0,0-1.233-.8,4.412,4.412,0,0,0-1.251-.49,10.962,10.962,0,0,0-3.647,1.2,17.559,17.559,0,0,0-3.439,2.4,24.2,24.2,0,0,0-3.036,3.246,24.276,24.276,0,0,0-2.388,3.7,17.3,17.3,0,0,0-1.406,3.6c-.267.395-.553.8-.861,1.207a31.338,31.338,0,0,1-2.265,2.667,25.659,25.659,0,0,1-3.017,2.7l-.019-1.144.156-.486q.138-.641.4-1.555t.6-1.966q.328-1.051.707-2.134t.793-2.065q.576-1.416,1.22-2.684t1.117-2.2l.714-1.588.005.051q.116-.376.208-.726a2.09,2.09,0,0,0,.048-.761,1.648,1.648,0,0,0-.905-1.387,3.194,3.194,0,0,0-1.829-.3,4.335,4.335,0,0,0-1.709.576,2.746,2.746,0,0,0-1.2,1.407l-.046.057a21.2,21.2,0,0,0-2.474,5.555c-.266.883-.526,1.784-.783,2.7-.384.59-.776,1.185-1.181,1.788a29.731,29.731,0,0,1-2.7,3.47,14.049,14.049,0,0,1-2.911,2.477,5.02,5.02,0,0,1-3.142.808q-1.337-.324-1.543-2.229a24.145,24.145,0,0,0,5.533-3.516,19.714,19.714,0,0,0,4.2-4.726,7.964,7.964,0,0,0,.919-2.105,5.74,5.74,0,0,0,.186-2.13,3.43,3.43,0,0,0-1.186-2.294,4.375,4.375,0,0,0-3.209-.773,9.183,9.183,0,0,0-4.162,1.257,13.78,13.78,0,0,0-3.369,2.813,19.939,19.939,0,0,0-2.608,3.824,29.49,29.49,0,0,0-1.355,2.939,3.363,3.363,0,0,1-.634.349,3.073,3.073,0,0,1-1.965.134,5.611,5.611,0,0,1-1.514-.748,2.409,2.409,0,0,1-1-1.273,13.284,13.284,0,0,0,1.7-2.815,4.158,4.158,0,0,0,.395-1.892,1.446,1.446,0,0,0-.863-1.235,3.259,3.259,0,0,0-1.9-.186,4.32,4.32,0,0,0-1.862.852,7.817,7.817,0,0,0-1.643,1.662,6.125,6.125,0,0,0-1,2.087,3.636,3.636,0,0,0,.016,2.083,3.965,3.965,0,0,1-.477,2.813,20.736,20.736,0,0,1-2,3.237A24.777,24.777,0,0,1-333.5-14.7a18.8,18.8,0,0,1-1.515,1.414q-1.107.85-1.626.384a2.257,2.257,0,0,1-.63-1.494,6.476,6.476,0,0,1-.017-1.119q.039-.6.109-1.158t.152-1.006a4.267,4.267,0,0,1,.162-.669q.4-1.138.843-2.331t.9-2.286q.455-1.091.9-2.025a13.665,13.665,0,0,1,.849-1.55,2.755,2.755,0,0,0,.439-1.715,1.921,1.921,0,0,0-.962-1.433,2.925,2.925,0,0,0-1.95-.441,3.312,3.312,0,0,0-2.355,1.348,14.316,14.316,0,0,0-.9,1.53q-.543,1.023-1.1,2.333t-1.152,2.834q-.591,1.523-1.11,2.986c-.155.554-.279,1.146-.386,1.757-.513.888-1.038,1.721-1.576,2.492a12.7,12.7,0,0,1-1.8,2.122q-.878.8-1.546.4a1.24,1.24,0,0,1-.534-1.088,5.816,5.816,0,0,1,.228-1.744,18.125,18.125,0,0,1,.713-2.083q.452-1.116.945-2.108a17.305,17.305,0,0,1,.983-1.748,8.266,8.266,0,0,1,.818-1.1.674.674,0,0,0,.037-.864,4.109,4.109,0,0,0-.866-1.027,14.162,14.162,0,0,0-1.253-.985,8.624,8.624,0,0,0-1.116-.687A2.5,2.5,0,0,0-349.234-26a11.889,11.889,0,0,0-1.717.264,6.831,6.831,0,0,1-.921.152l-1.03.111a15.218,15.218,0,0,0,.752-1.722,3.122,3.122,0,0,0,.219-1.352,3.349,3.349,0,0,0-.568-1.4,1.781,1.781,0,0,0-1.474-.622,3.3,3.3,0,0,0-1.593.693,7.312,7.312,0,0,0-1.48,1.489,9.273,9.273,0,0,0-1.1,1.89,4.3,4.3,0,0,0-.389,1.943,4.347,4.347,0,0,0,.25,1.588,3.734,3.734,0,0,0,.669,1.126l-.949,1.822-.131.236q-1.137,1.811-2.412,3.712a29.694,29.694,0,0,1-2.7,3.469,14.042,14.042,0,0,1-2.911,2.477,5.022,5.022,0,0,1-3.142.809q-1.338-.325-1.544-2.23a24.142,24.142,0,0,0,5.533-3.515,19.709,19.709,0,0,0,4.2-4.727,7.956,7.956,0,0,0,.919-2.1,5.749,5.749,0,0,0,.187-2.13,3.429,3.429,0,0,0-1.186-2.294,4.374,4.374,0,0,0-3.209-.774,9.177,9.177,0,0,0-4.162,1.258,13.768,13.768,0,0,0-3.369,2.812,19.965,19.965,0,0,0-2.608,3.824,28.554,28.554,0,0,0-1.835,4.236c-.021.078-.039.153-.059.23a25.49,25.49,0,0,1-1.933,2.538,24.635,24.635,0,0,1-4.2,3.84,23.569,23.569,0,0,1-4.916,2.719,21.651,21.651,0,0,1-5.447,1.421,12.415,12.415,0,0,1-4.764-.215,9.232,9.232,0,0,1-3.61-1.824,9.359,9.359,0,0,1-2.421-3.124,12.548,12.548,0,0,1-1.154-4.174,18.2,18.2,0,0,1,.363-5.8,26.591,26.591,0,0,1,2.287-6.317,35.5,35.5,0,0,1,6.666-9.186,22.711,22.711,0,0,1,8.634-5.439,9.073,9.073,0,0,1,1.637-.516q.789-.163,1.511-.241a5.364,5.364,0,0,1,3.793.632,3.45,3.45,0,0,1,1.391,2.506,5.809,5.809,0,0,1-.172,2.025,9.166,9.166,0,0,1-.859,2.176,13.2,13.2,0,0,1-1.44,2.109,11.937,11.937,0,0,1-1.861,1.816,1.635,1.635,0,0,0-.766,1.593,2.537,2.537,0,0,0,.528,1.272,3.3,3.3,0,0,0,1.118.947,3.517,3.517,0,0,0,1.423.393,2.16,2.16,0,0,0,1.437-.442,17.917,17.917,0,0,0,2.627-2.211A17.634,17.634,0,0,0-374.9-30.94a12.669,12.669,0,0,0,1.451-2.97,7.784,7.784,0,0,0,.4-3.039,12.114,12.114,0,0,0-.538-2.807,8.382,8.382,0,0,0-1.257-2.469,7.758,7.758,0,0,0-2.028-1.891,9.107,9.107,0,0,0-2.862-1.175l.051-.006a17.734,17.734,0,0,0-5.393-.251,21.373,21.373,0,0,0-7.1,2.069,35.67,35.67,0,0,0-6.441,4.03,42.006,42.006,0,0,0-5.441,5.095,38.107,38.107,0,0,0-3.991,5.25,32.958,32.958,0,0,0-3.116,8.047,22.534,22.534,0,0,0-.65,7.728,17.963,17.963,0,0,0,1.624,5.868A13.53,13.53,0,0,0-406.7-2.914a13.928,13.928,0,0,0,5.245,2.741,16.789,16.789,0,0,0,6.889.35,21.418,21.418,0,0,0,6.755-1.851,25.661,25.661,0,0,0,5.8-3.7,29.9,29.9,0,0,0,4.569-4.845q.668,4.185,6,4.511a8.964,8.964,0,0,0,1.664-.024,9,9,0,0,0,3.988-1.42,17.069,17.069,0,0,0,3.384-2.919,28.429,28.429,0,0,0,2.871-3.8q1.312-2.068,2.395-4.114a5.122,5.122,0,0,0,.5-1.141l.48-.892.737-1.382c.343-.038.634-.077.873-.12s.493-.1.764-.161q.767-.134,1.382-.227a1.75,1.75,0,0,1,.944.054.566.566,0,0,1,.3.619,3.818,3.818,0,0,1-.55,1.414,22.2,22.2,0,0,0-1.776,4.047,7.6,7.6,0,0,0-.136,4.287,4.036,4.036,0,0,0,1.406,2.166,4.343,4.343,0,0,0,2.422.962A5.532,5.532,0,0,0-346.2-9.453a14.088,14.088,0,0,0,3.078-3.094c.136-.183.267-.376.4-.566a5.9,5.9,0,0,0,1.291,2.233,4.462,4.462,0,0,0,3.886,1.248A8.545,8.545,0,0,0-334.5-10.4a9.184,9.184,0,0,0,2.6-1.948,21.892,21.892,0,0,0,2.581-3.353q1.316-2.043,3.024-5.042a7.436,7.436,0,0,0,5.474,1.961,6.389,6.389,0,0,0,1.448-.332c-.01.059-.023.121-.032.179a7.792,7.792,0,0,0-.061,2.091q.49,4.532,6.049,4.868A8.94,8.94,0,0,0-311.748-12a8.995,8.995,0,0,0,3.988-1.42,17.071,17.071,0,0,0,3.384-2.919q.359-.4.705-.819l-.2.869q-.3,1.075-.647,2.206t-.659,2.1l-2.48,1.154q-2.085.955-4.046,1.844a36.945,36.945,0,0,0-3.383,1.72,7.366,7.366,0,0,0-2.512,2.3,3.726,3.726,0,0,0-.631,2.361A3.283,3.283,0,0,0-317.5-.882,4.657,4.657,0,0,0-315.853.4a6.778,6.778,0,0,0,2.383.6,8.2,8.2,0,0,0,2.884-.312,10.176,10.176,0,0,0,3.643-1.723,13.605,13.605,0,0,0,2.768-2.826,20.175,20.175,0,0,0,2.087-3.586,42.789,42.789,0,0,0,1.594-4.054,35.15,35.15,0,0,0,3.989-2.854,27,27,0,0,0,3.472-3.5q.545,2.732,4.062,3.078a8.055,8.055,0,0,0,4.469-1.316,14.932,14.932,0,0,0,3.709-3.527,6.406,6.406,0,0,0,1.157,2.506,2.876,2.876,0,0,0,2.047,1.107,6.18,6.18,0,0,0,3.69-1.284l.016-.012a7.323,7.323,0,0,1-1.087-2.257" transform="translate(411.916 45.649)"/>
        </g>
        <g id="group-4" data-name="group" transform="translate(121.777 4.74)">
          <path id="path-3" data-name="path" class="cls-4" d="M-1.021-12.9a2.9,2.9,0,0,0,1.007.881,3.279,3.279,0,0,0,1.292.381,2.976,2.976,0,0,0,1.382-.228,4.088,4.088,0,0,0,1.706-1.565,6.878,6.878,0,0,0,1.023-2.585,2.921,2.921,0,0,0-.364-1.68,2.714,2.714,0,0,0-1.075-1.03A3.27,3.27,0,0,0,2.5-19.093a2.913,2.913,0,0,0-1.425.31,3.938,3.938,0,0,0-1.2.989,8.455,8.455,0,0,0-.836,1.419,4.022,4.022,0,0,0-.545,2.2A2.634,2.634,0,0,0-1.021-12.9" transform="translate(1.512 19.094)"/>
        </g>
        <g id="group-5" data-name="group" transform="translate(151.984 17.661)">
          <path id="path-4" data-name="path" class="cls-4" d="M-64.089-19.554a.355.355,0,0,1,.082-.194l-.028.126a11.871,11.871,0,0,1,1.39-2.9,14.619,14.619,0,0,1,1.787-2.266,5.5,5.5,0,0,1,1.574-1.2q.685-.3.747.268a2.06,2.06,0,0,1-.09.687,6.646,6.646,0,0,1-.452,1.137,18.885,18.885,0,0,1-2.149,2.716,14.45,14.45,0,0,1-2.81,2.294,5.621,5.621,0,0,1-.052-.671M-53-23.441q-.074-.69-.481-.646a2.008,2.008,0,0,0-1.179.866q-.911,1.453-1.936,2.98a23.385,23.385,0,0,1-2.127,2.734,11.057,11.057,0,0,1-2.293,1.951,3.956,3.956,0,0,1-2.476.637q-1.054-.255-1.216-1.756a19.005,19.005,0,0,0,4.36-2.77A15.508,15.508,0,0,0-57.03-23.17a6.27,6.27,0,0,0,.724-1.659,4.527,4.527,0,0,0,.147-1.678,2.7,2.7,0,0,0-.934-1.808,3.45,3.45,0,0,0-2.529-.609,7.235,7.235,0,0,0-3.279.991,10.853,10.853,0,0,0-2.654,2.216A15.681,15.681,0,0,0-67.611-22.7a22.447,22.447,0,0,0-1.445,3.337c-.09.33-.168.647-.235.954-.085.137-.168.275-.254.413q-.577.924-1.166,1.748a12.41,12.41,0,0,1-1.068,1.326q-1.144,1.192-1.559.764t.372-3.016q.126-.341.3-.853a7.857,7.857,0,0,1,.407-.988q.326-.773.663-1.652t.61-1.769a15.852,15.852,0,0,0,.429-1.73,5.175,5.175,0,0,0,.086-1.487,1.771,1.771,0,0,0-.587-1.25,2.476,2.476,0,0,0-1.95-.569,6.515,6.515,0,0,0-2.906,1.217,18.824,18.824,0,0,0-2.969,2.537,7.016,7.016,0,0,0-.216-1.434,1.9,1.9,0,0,0-.489-.912,2.594,2.594,0,0,0-1.981-.484,6.189,6.189,0,0,0-2.5.989,17.673,17.673,0,0,0-2.747,2.123,2.811,2.811,0,0,0-.277-1.427,1.607,1.607,0,0,0-1.032-.812,2.3,2.3,0,0,0-1.914.33,3.443,3.443,0,0,0-1.255,1.49c-.322.791-.622,1.613-.911,2.449a7.313,7.313,0,0,1,.486,2.626,7.342,7.342,0,0,1-2.773,5.747c-.155.776-.269,1.459-.339,2.039a.944.944,0,0,0,.176.678,1.827,1.827,0,0,0,.568.513,2.626,2.626,0,0,0,.792.3,2.643,2.643,0,0,0,.847.053,1.269,1.269,0,0,0,1.206-.993l0,.041q.109-.5.358-1.434t.6-2.056q.349-1.125.766-2.4t.858-2.514a5.052,5.052,0,0,1,.537-1.1,10.085,10.085,0,0,1,.787-1.07,11.688,11.688,0,0,1,.9-.959,10.252,10.252,0,0,1,.845-.727q.94-.8,1.4-.357a1.439,1.439,0,0,1,.2,1.456l-.814,2.346q-.628,1.792-1.192,3.6a23.444,23.444,0,0,0-.84,3.806.8.8,0,0,0,.214.654,2.432,2.432,0,0,0,.627.486,2.864,2.864,0,0,0,.833.3,2.967,2.967,0,0,0,.908.046,1.46,1.46,0,0,0,.8-.354,2.048,2.048,0,0,0,.525-.652q.141-.589.5-1.839t.745-2.605a8.087,8.087,0,0,1,.409-1.153q.263-.6.554-1.332.235-.477.494-1.121t.486-1.2A7.586,7.586,0,0,1-78.5-22.246a16.349,16.349,0,0,1,1.435-1.345q.94-.8,1.419-.359t.178,1.458l-.687,2q-.351.942-.734,1.947t-.648,1.979a19.032,19.032,0,0,0-.413,1.871,4.974,4.974,0,0,0-.03,1.624,2.085,2.085,0,0,0,1.255,1.547,4.388,4.388,0,0,0,2.142.261,6.875,6.875,0,0,0,2.052-.571,5.958,5.958,0,0,0,1.6-.973A11.741,11.741,0,0,0-69.9-14.083c.2-.285.4-.581.591-.884q.817,2.661,4.572,2.892a7.081,7.081,0,0,0,1.312-.018,7.092,7.092,0,0,0,3.142-1.119,13.466,13.466,0,0,0,2.666-2.3,22.437,22.437,0,0,0,2.263-2.995q1.034-1.63,1.887-3.242A2.866,2.866,0,0,0-53-23.441" transform="translate(94.839 28.937)"/>
        </g>
        <g id="group-6" data-name="group" transform="translate(143.77 23.835)">
          <path id="path-5" data-name="path" class="cls-4" d="M-16.581-8.29a3.978,3.978,0,0,0-3.978-3.978A3.978,3.978,0,0,0-24.537-8.29a3.978,3.978,0,0,0,3.978,3.978A3.979,3.979,0,0,0-16.581-8.29" transform="translate(24.537 12.268)"/>
        </g>
        <g id="group-7" data-name="group" transform="translate(148.256 13.932)">
          <path id="path-6" data-name="path" class="cls-4" d="M-2.038-44.974a3.705,3.705,0,0,0,.686,2.362,4.553,4.553,0,0,0,1.4,1.284,5.375,5.375,0,0,0,1.62.631,5.425,5.425,0,0,0,1.729.1,3.993,3.993,0,0,0,3.185-2.044l.288-.527.456.391a5.224,5.224,0,0,0,.883.612,5.617,5.617,0,0,0,1.629.6,5.677,5.677,0,0,0,1.758.086,4.259,4.259,0,0,0,2.3-1,4.791,4.791,0,0,0,1.208-1.539l.354-.732.483.575A4.661,4.661,0,0,0,17.8-42.85a7.166,7.166,0,0,0,3.468.445,9.644,9.644,0,0,0,2.875-.792,9.38,9.38,0,0,0,1.894-1.087l.257-.2.279.16a9.249,9.249,0,0,0,4.052,1.105,9.944,9.944,0,0,0,1.8-.028,9.856,9.856,0,0,0,4.348-1.549,16.294,16.294,0,0,0,3.213-2.767,25.322,25.322,0,0,0,2.54-3.361c.716-1.127,1.379-2.266,1.973-3.385a5.519,5.519,0,0,0,.8-3.322,3.265,3.265,0,0,0-2.8-3.085l-.355-.044-.064-.352a5.457,5.457,0,0,0-1.8-3.172,5.778,5.778,0,0,0-3.924-1.3c-.187,0-.381.006-.59.018a9.991,9.991,0,0,0-4.51,1.37,13.63,13.63,0,0,0-3.186,2.617l-.462.513-.327-.608a4.16,4.16,0,0,0-1.017-1.243A5.244,5.244,0,0,0,22.244-64.1a9.23,9.23,0,0,0-4.166,1.683l-.411.286-.278-.191a5.43,5.43,0,0,0-3.707-.853,8.767,8.767,0,0,0-3.655,1.385l-.411.26-.26-.162A4.622,4.622,0,0,0,8.2-62.213l-.124-.033a5.094,5.094,0,0,0-4.112.731,6.179,6.179,0,0,0-2.231,2.667l-.03.07c-.026.063-.052.128-.077.194a7.8,7.8,0,0,1,2.695,5.913,7.875,7.875,0,0,1-6.355,7.7M2.847-39.6a6.5,6.5,0,0,1-1.382-.151,6.337,6.337,0,0,1-1.911-.746,5.508,5.508,0,0,1-1.7-1.554,4.68,4.68,0,0,1-.842-3.259l.067-.517.367-.052a6.9,6.9,0,0,0,5.9-6.8A6.835,6.835,0,0,0,.738-58.055l-.282-.223.131-.335c.071-.183.142-.362.214-.538l.034-.082a7.142,7.142,0,0,1,2.578-3.087A6.068,6.068,0,0,1,8.3-63.191l.167.045a5.678,5.678,0,0,1,1.139.47,9.626,9.626,0,0,1,3.972-1.47,6.459,6.459,0,0,1,4.078.836,10.1,10.1,0,0,1,4.483-1.761,6.2,6.2,0,0,1,4.736,1.411,5.063,5.063,0,0,1,.9.967,14.536,14.536,0,0,1,2.974-2.335,10.966,10.966,0,0,1,4.946-1.5c.231-.014.444-.02.649-.02a6.718,6.718,0,0,1,4.564,1.541,6.416,6.416,0,0,1,2.05,3.4,4.222,4.222,0,0,1,3.3,3.886,6.453,6.453,0,0,1-.916,3.894c-.6,1.13-1.275,2.29-2,3.439A26.274,26.274,0,0,1,40.7-46.906,17.279,17.279,0,0,1,37.3-43.974a10.823,10.823,0,0,1-4.774,1.7,10.974,10.974,0,0,1-1.972.031,10.425,10.425,0,0,1-4.189-1.078,10.776,10.776,0,0,1-1.832,1.014,10.6,10.6,0,0,1-3.165.869,8.13,8.13,0,0,1-3.935-.51,5.661,5.661,0,0,1-1.756-1.108,5.926,5.926,0,0,1-1.145,1.308,5.226,5.226,0,0,1-2.83,1.232,6.63,6.63,0,0,1-2.056-.1,6.6,6.6,0,0,1-1.907-.7,6.328,6.328,0,0,1-.6-.378A4.971,4.971,0,0,1,3.5-39.631a6.063,6.063,0,0,1-.658.036" transform="translate(3.016 66.553)"/>
        </g>
        <g id="group-8" data-name="group" transform="translate(0 0)">
          <path id="path-7" data-name="path" class="cls-4" d="M-67.616-25a6.871,6.871,0,0,0-.73.043c-.359.039-.748.1-1.156.186a5.423,5.423,0,0,0-.963.308l-.231.087a19.125,19.125,0,0,0-7.222,4.57,31.949,31.949,0,0,0-5.954,8.216,22.935,22.935,0,0,0-1.964,5.407,14.592,14.592,0,0,0-.3,4.614,8.889,8.889,0,0,0,.8,2.942,5.622,5.622,0,0,0,1.46,1.9A5.51,5.51,0,0,0-81.7,4.347a8.844,8.844,0,0,0,3.336.12,18,18,0,0,0,4.514-1.177A19.914,19.914,0,0,0-69.712,1a21.023,21.023,0,0,0,3.561-3.26A21.394,21.394,0,0,0-64.8-3.987a32.576,32.576,0,0,1,2-4.576,24.557,24.557,0,0,1,1.576-2.588q-.391.3-.789.57a5.878,5.878,0,0,1-3.811,1.107,7.228,7.228,0,0,1-2.909-.809,7.006,7.006,0,0,1-2.368-2,6.213,6.213,0,0,1-1.261-3.121,5.337,5.337,0,0,1,2.236-4.977A8.26,8.26,0,0,0-68.9-21.6a9.61,9.61,0,0,0,1.035-1.512,5.532,5.532,0,0,0,.516-1.294,2.665,2.665,0,0,0,.089-.587C-67.354-25-67.47-25-67.616-25M-9.757-4.515l.388.162a9.373,9.373,0,0,0,2.475.67l.345.043.071.34a7.526,7.526,0,0,0,4.73,5.67l.841.336-.744.516A9.285,9.285,0,0,0-4.368,5.976a6.424,6.424,0,0,0-1.021,4.1A6,6,0,0,0-4.07,13.215a7.427,7.427,0,0,0,2.611,2.046,9.536,9.536,0,0,0,3.349.864,10.929,10.929,0,0,0,3.821-.4,12.97,12.97,0,0,0,4.6-2.188,16.452,16.452,0,0,0,3.328-3.4,23.072,23.072,0,0,0,2.373-4.074c.471-1.037.914-2.123,1.317-3.229l.055-.151.135-.089A37.557,37.557,0,0,0,20.842.147c.375-.312.753-.643,1.121-.986l.276-.256.317.2A8.887,8.887,0,0,0,26.347.345l.274.013A10.806,10.806,0,0,0,32.586-1.4c.425-.276.848-.582,1.257-.91l.322-.258.307.276A5.575,5.575,0,0,0,37.727-.885L38-.871a8.923,8.923,0,0,0,5.311-1.812,7.84,7.84,0,0,1-3.459-6.5,7.847,7.847,0,0,1,5.6-7.514c.178-.4.351-.786.519-1.142a14.742,14.742,0,0,1,.78-1.5,5.234,5.234,0,0,0,.865-1.882A5.305,5.305,0,0,0,47.7-22.91a4.655,4.655,0,0,0-2.275-3.475,5.775,5.775,0,0,0-3.724-.837,6.167,6.167,0,0,0-2.232.7,5.8,5.8,0,0,0-.534.322l-.217.148-.243-.1a6.068,6.068,0,0,0-1.215-.37l-.436-.081-.44.06a13.756,13.756,0,0,0-4.562,1.5c-.443.234-.9.5-1.362.8l-1.944,1.243.1-.031-1.554,1.5c-.316.3-.6.592-.872.877l-.676.714-.157-.971a4.845,4.845,0,0,0-.134-.581l-.154-.531.546-.086a5.856,5.856,0,0,0,.955-.234l1.888-.634,1.395-2.021c.017-.023.034-.046.05-.071a9.64,9.64,0,0,0,1.436-3.61l.033-.179.009-.183a5.649,5.649,0,0,0-.759-3.242,5.455,5.455,0,0,0-2.161-2.048,6.017,6.017,0,0,0-2.65-.674l-.155,0a5.628,5.628,0,0,0-2.6.616l-.111.06a6.692,6.692,0,0,0-2.022,1.715,11.053,11.053,0,0,0-1.108,1.858,6.682,6.682,0,0,0-.817,3.717,5.494,5.494,0,0,0,.448,1.67l.253.563-.607.115a7.189,7.189,0,0,0-2.264.847,5.454,5.454,0,0,0-1.945,1.891l-.33.538-.436-.456c-.134-.14-.276-.276-.424-.405A6.617,6.617,0,0,0,9.2-23.757c-.229,0-.458.007-.7.022A11.952,11.952,0,0,0,3.1-22.1a16.58,16.58,0,0,0-4.04,3.37,21.686,21.686,0,0,0-1.366,1.737l-.64.9-.232-1.084a4.17,4.17,0,0,0-2.36-2.957,5.978,5.978,0,0,0-3.48-.413l-.033.005a7.08,7.08,0,0,0-3.06,1.362,10.63,10.63,0,0,0-1.968,1.915l-.52.656-.313-.776a4.864,4.864,0,0,0-1.916-2.256,5.667,5.667,0,0,0-3.732-.861,6.066,6.066,0,0,0-4.248,2.414l-.06.081a16.725,16.725,0,0,0-1.088,1.833c-.377.712-.749,1.493-1.136,2.388l-.275.637-.5-.476c-.058-.054-.117-.109-.178-.163a17.04,17.04,0,0,0-1.494-1.175,11.514,11.514,0,0,0-1.434-.88,5,5,0,0,0-2.209-.554l-.4-.011-.069-.39a6.2,6.2,0,0,0-.943-2.268l-.158-.246-.206-.208a4.535,4.535,0,0,0-3.266-1.444,4.288,4.288,0,0,0-.459.025,6.017,6.017,0,0,0-2.941,1.222,10.1,10.1,0,0,0-2.038,2.044c-.239.318-.466.654-.673,1l-.257.423-.419-.265a7.073,7.073,0,0,0-3.828-.974c-.23,0-.459.007-.7.022a11.948,11.948,0,0,0-5.393,1.636,16.6,16.6,0,0,0-4.04,3.37,22.813,22.813,0,0,0-2.969,4.35,31.611,31.611,0,0,0-1.962,4.5l-.022.065-.039.056a22.466,22.466,0,0,1-1.448,1.861,22.01,22.01,0,0,1-3.726,3.412,20.873,20.873,0,0,1-4.343,2.4,18.955,18.955,0,0,1-4.757,1.241,9.789,9.789,0,0,1-3.709-.144A6.459,6.459,0,0,1-84.5,4.012,6.565,6.565,0,0,1-86.212,1.8,9.86,9.86,0,0,1-87.1-1.467a15.554,15.554,0,0,1,.318-4.923,23.943,23.943,0,0,1,2.048-5.643A32.924,32.924,0,0,1-78.6-20.5a20.081,20.081,0,0,1,7.59-4.8l.17-.064a6.326,6.326,0,0,1,1.139-.362c.439-.091.859-.159,1.249-.2a7.88,7.88,0,0,1,.834-.049,2.946,2.946,0,0,1,.916.11l.1.035.079.076a.78.78,0,0,1,.215.525,3.134,3.134,0,0,1-.107,1.064,6.468,6.468,0,0,1-.606,1.524,10.512,10.512,0,0,1-1.14,1.667,9.269,9.269,0,0,1-1.387,1.365,4.4,4.4,0,0,0-1.858,4.1,5.258,5.258,0,0,0,1.07,2.638,6.035,6.035,0,0,0,2.042,1.729,6.242,6.242,0,0,0,2.52.7c.106.007.21.01.314.01a4.95,4.95,0,0,0,2.879-.943,20.776,20.776,0,0,0,3.008-2.533,20.488,20.488,0,0,0,2.551-3.138,15.5,15.5,0,0,0,1.764-3.618,10.559,10.559,0,0,0,.533-4.1,14.918,14.918,0,0,0-.661-3.446,11.188,11.188,0,0,0-1.669-3.274,10.549,10.549,0,0,0-2.743-2.562,11.9,11.9,0,0,0-3.72-1.543l.016-.067-.058-.008-.009.047a20.634,20.634,0,0,0-6.225-.288A24.214,24.214,0,0,0-77.8-33.579a38.613,38.613,0,0,0-6.937,4.341,44.932,44.932,0,0,0-5.8,5.429,40.976,40.976,0,0,0-4.278,5.635l-.075.127A35.9,35.9,0,0,0-98.257-9.33a25.36,25.36,0,0,0-.712,8.676,20.79,20.79,0,0,0,1.877,6.761,16.319,16.319,0,0,0,4.191,5.46,16.725,16.725,0,0,0,6.269,3.289,19.544,19.544,0,0,0,7.974.437A24.3,24.3,0,0,0-71.068,13.2a28.556,28.556,0,0,0,6.419-4.1c.667-.564,1.325-1.169,1.955-1.8L-62.38,7l.341.285A10.6,10.6,0,0,0-56.056,9.42,11.7,11.7,0,0,0-53.9,9.387a11.772,11.772,0,0,0,5.194-1.85,19.907,19.907,0,0,0,3.93-3.385A31.294,31.294,0,0,0-41.823.286l.7-1.078.188,1.273a10.962,10.962,0,0,0,.216,1.082l.01.039a6.753,6.753,0,0,0,2.34,3.6,7.079,7.079,0,0,0,3.924,1.562l.087.006c.146.008.3.012.447.012A8.276,8.276,0,0,0-29,5.166a15.3,15.3,0,0,0,1.3-1.05l.3-.272.321.25A7.111,7.111,0,0,0-22.6,5.532c.28,0,.575-.013.85-.037a11.335,11.335,0,0,0,4.022-1.034,11.94,11.94,0,0,0,3.394-2.518,24.689,24.689,0,0,0,2.918-3.777c.449-.7.933-1.479,1.438-2.32ZM2.7,17.13c-.3,0-.593-.012-.885-.036a10.523,10.523,0,0,1-3.691-.957A8.387,8.387,0,0,1-4.83,13.822a6.955,6.955,0,0,1-1.526-3.643A7.368,7.368,0,0,1-5.2,5.468,9.709,9.709,0,0,1-2.884,2.924,8.539,8.539,0,0,1-7.352-2.765a10.345,10.345,0,0,1-2-.535c-.434.716-.85,1.384-1.241,1.992A25.661,25.661,0,0,1-13.63,2.618,12.9,12.9,0,0,1-17.3,5.338a12.274,12.274,0,0,1-4.362,1.126c-.3.027-.622.041-.93.041a8.142,8.142,0,0,1-4.754-1.4c-.356.305-.72.592-1.087.855a9.174,9.174,0,0,1-5.98,1.787l-.1-.007A8.035,8.035,0,0,1-38.977,5.96a7.7,7.7,0,0,1-2.672-4.114l-.011-.045,0-.012A31.812,31.812,0,0,1-44.055,4.8a20.893,20.893,0,0,1-4.123,3.55,12.731,12.731,0,0,1-5.62,2,12.7,12.7,0,0,1-2.325.037A11.829,11.829,0,0,1-62.315,8.3c-.555.54-1.127,1.06-1.707,1.55a29.511,29.511,0,0,1-6.638,4.235,25.23,25.23,0,0,1-7.88,2.171,20.579,20.579,0,0,1-8.36-.468,17.69,17.69,0,0,1-6.63-3.482,17.3,17.3,0,0,1-4.44-5.783A21.755,21.755,0,0,1-99.936-.55,26.314,26.314,0,0,1-99.2-9.56a36.836,36.836,0,0,1,3.467-8.954l.1-.172a41.973,41.973,0,0,1,4.379-5.77A45.875,45.875,0,0,1-85.333-30a39.58,39.58,0,0,1,7.112-4.45,25.187,25.187,0,0,1,8.328-2.424,21.471,21.471,0,0,1,6.133.227v0l.068.016c.106.019.212.04.318.061l.409.081,0,.034a12.714,12.714,0,0,1,3.7,1.593,11.525,11.525,0,0,1,2.995,2.8,12.162,12.162,0,0,1,1.815,3.559,15.937,15.937,0,0,1,.7,3.67,11.53,11.53,0,0,1-.58,4.48A16.451,16.451,0,0,1-56.2-16.515q-.21.319-.433.632.586-.416,1.2-.782a12.914,12.914,0,0,1,5.829-1.77c.264-.016.513-.024.762-.024a8.3,8.3,0,0,1,3.926.88c.151-.23.309-.455.473-.673a11.053,11.053,0,0,1,2.235-2.24A6.977,6.977,0,0,1-38.789-21.9a5.3,5.3,0,0,1,.564-.03A5.487,5.487,0,0,1-34.269-20.2l.306.324.186.29a7.407,7.407,0,0,1,1,2.244,5.836,5.836,0,0,1,2.24.64,12.351,12.351,0,0,1,1.549.949c.441.309.868.636,1.271.976.3-.671.6-1.279.9-1.846a17.5,17.5,0,0,1,1.161-1.949l.069-.094a7.021,7.021,0,0,1,4.921-2.8A6.625,6.625,0,0,1-16.3-20.453a5.982,5.982,0,0,1,1.95,2.011,11.568,11.568,0,0,1,1.659-1.511A8.035,8.035,0,0,1-9.207-21.5l.038-.006a6.92,6.92,0,0,1,4.043.493,5.121,5.121,0,0,1,2.6,2.678q.414-.536.853-1.039a17.561,17.561,0,0,1,4.277-3.567,12.918,12.918,0,0,1,5.829-1.77c.264-.016.513-.024.761-.024a7.553,7.553,0,0,1,5.132,1.71l.058.051A6.4,6.4,0,0,1,16.338-24.7a8.248,8.248,0,0,1,2-.831,6.555,6.555,0,0,1-.312-1.417,7.618,7.618,0,0,1,.912-4.254,11.97,11.97,0,0,1,1.205-2.014,7.65,7.65,0,0,1,2.313-1.97l.149-.081a6.585,6.585,0,0,1,3.221-.721A6.988,6.988,0,0,1,28.9-35.2a6.414,6.414,0,0,1,2.545,2.409,6.6,6.6,0,0,1,.9,3.792l-.018.278-.039.211a10.876,10.876,0,0,1-.788,2.535,14.684,14.684,0,0,1,4.751-1.529l.595-.081.591.11a6.836,6.836,0,0,1,1.169.332c.132-.083.268-.161.406-.235a7.134,7.134,0,0,1,2.585-.809,6.728,6.728,0,0,1,4.341.977,5.609,5.609,0,0,1,2.729,4.2,6.284,6.284,0,0,1-.1,2,6.139,6.139,0,0,1-1,2.212,14.368,14.368,0,0,0-.711,1.377c-.193.411-.393.856-.6,1.329l-.094.215-.227.06a6.872,6.872,0,0,0-5.1,6.638,6.868,6.868,0,0,0,3.593,6.038l.674.366L43.9-1.908A9.88,9.88,0,0,1,38,.1L37.632.084a6.652,6.652,0,0,1-3.5-1.391c-.334.256-.676.5-1.019.72a11.769,11.769,0,0,1-6.494,1.919l-.37-.018a10.073,10.073,0,0,1-3.9-1.192c-.295.267-.593.526-.891.774a38.429,38.429,0,0,1-3.28,2.432c-.4,1.077-.83,2.135-1.29,3.148a24.025,24.025,0,0,1-2.474,4.246,17.433,17.433,0,0,1-3.526,3.6,13.913,13.913,0,0,1-4.93,2.352A12.268,12.268,0,0,1,2.7,17.13" transform="translate(100.058 36.999)"/>
        </g>
        <g id="group-9" data-name="group" transform="translate(51.119 61.27)">
          <path id="path-8" data-name="path" class="cls-4" d="M-6.181-4.222q0-1.393-1.6-1.393h-.685v2.78H-7.7a1.636,1.636,0,0,0,1.129-.351,1.319,1.319,0,0,0,.392-1.036m.1-1.494A1.89,1.89,0,0,1-5.49-4.24a1.987,1.987,0,0,1-.569,1.5A2.415,2.415,0,0,1-7.8-2.191H-9.147V-6.248h1.393a2.413,2.413,0,0,1,1.677.531" transform="translate(9.147 6.248)"/>
        </g>
        <g id="group-10" data-name="group" transform="translate(62.274 61.27)">
          <path id="path-9" data-name="path" class="cls-4" d="M-5.94,0V.644H-8.105V1.718h1.944v.609H-8.105V3.413H-5.87v.645H-8.79V0Z" transform="translate(8.79)"/>
        </g>
        <g id="group-11" data-name="group" transform="translate(72.356 61.172)">
          <path id="path-10" data-name="path" class="cls-4" d="M-3.248-1.318a.9.9,0,0,0-.491.122.408.408,0,0,0-.192.369.429.429,0,0,0,.192.377,2.9,2.9,0,0,0,.816.282,2.24,2.24,0,0,1,.94.424,1,1,0,0,1,.316.8,1.065,1.065,0,0,1-.4.862,1.6,1.6,0,0,1-1.051.331A2.466,2.466,0,0,1-4.807,1.6l.43-.516A1.934,1.934,0,0,0-3.1,1.613a.871.871,0,0,0,.525-.142.444.444,0,0,0,.195-.377A.424.424,0,0,0-2.564.728,1.926,1.926,0,0,0-3.193.49a5.807,5.807,0,0,1-.679-.2A1.541,1.541,0,0,1-4.284.057a.98.98,0,0,1-.36-.835,1.018,1.018,0,0,1,.409-.868,1.651,1.651,0,0,1,1.013-.3,2.425,2.425,0,0,1,.772.128,2.02,2.02,0,0,1,.662.36l-.366.517a1.387,1.387,0,0,0-.488-.267,1.879,1.879,0,0,0-.607-.1" transform="translate(4.807 1.951)"/>
        </g>
        <g id="group-12" data-name="group" transform="translate(82.961 61.27)">
          <path id="path-11" data-name="path" class="cls-4" d="M-6.181-4.222q0-1.393-1.6-1.393h-.685v2.78H-7.7a1.636,1.636,0,0,0,1.129-.351,1.319,1.319,0,0,0,.392-1.036m.1-1.494A1.89,1.89,0,0,1-5.49-4.24a1.987,1.987,0,0,1-.569,1.5A2.415,2.415,0,0,1-7.8-2.191H-9.147V-6.248h1.393a2.413,2.413,0,0,1,1.677.531" transform="translate(9.147 6.248)"/>
        </g>
        <g id="group-13" data-name="group" transform="translate(94.117 61.27)">
          <path id="path-12" data-name="path" class="cls-4" d="M-5.94,0V.644H-8.105V1.718h1.944v.609H-8.105V3.413H-5.87v.645H-8.79V0Z" transform="translate(8.79)"/>
        </g>
        <g id="group-14" data-name="group" transform="translate(112.464 61.172)">
          <path id="path-13" data-name="path" class="cls-4" d="M-3.883-3.508a.809.809,0,0,0,.174-.482A.544.544,0,0,0-3.895-4.4a.668.668,0,0,0-.47-.171.97.97,0,0,0-.83.51l-.551-.319a2.028,2.028,0,0,1,.589-.6,1.533,1.533,0,0,1,.83-.2,1.342,1.342,0,0,1,.891.322,1.087,1.087,0,0,1,.383.879,1.187,1.187,0,0,1-.162.6,4.018,4.018,0,0,1-.6.731l-.952.97h1.84v.656H-5.7v-.581l1.23-1.236a6.5,6.5,0,0,0,.587-.656" transform="translate(5.746 5.191)"/>
        </g>
        <g id="group-15" data-name="group" transform="translate(122.552 61.171)">
          <path id="path-14" data-name="path" class="cls-4" d="M-1.881-2.094A2.184,2.184,0,0,0-2.122-1,2.186,2.186,0,0,0-1.881.1a.807.807,0,0,0,.752.418A.8.8,0,0,0-.383.1,2.226,2.226,0,0,0-.148-1,2.229,2.229,0,0,0-.383-2.1a.8.8,0,0,0-.746-.415.807.807,0,0,0-.752.418M-2.371.533A2.564,2.564,0,0,1-2.783-1a2.564,2.564,0,0,1,.412-1.529A1.43,1.43,0,0,1-1.129-3.1a1.43,1.43,0,0,1,1.242.572A2.564,2.564,0,0,1,.525-1,2.564,2.564,0,0,1,.113.533,1.431,1.431,0,0,1-1.129,1.1,1.431,1.431,0,0,1-2.371.533" transform="translate(2.783 3.098)"/>
        </g>
        <g id="group-16" data-name="group" transform="translate(132.988 61.27)">
          <path id="path-15" data-name="path" class="cls-4" d="M0,0H1.474V4.057H.824V.609H0Z"/>
        </g>
        <g id="group-17" data-name="group" transform="translate(141.996 61.195)">
          <path id="path-16" data-name="path" class="cls-4" d="M-3.3-4.427a.891.891,0,0,0-.586.195.626.626,0,0,0-.235.505.724.724,0,0,0,.226.534.778.778,0,0,0,.569.223.826.826,0,0,0,.569-.2.652.652,0,0,0,.226-.511.735.735,0,0,0-.209-.528.742.742,0,0,0-.56-.218m.125-1.509a.9.9,0,0,0-.8.366,1.721,1.721,0,0,0-.261.987,1.458,1.458,0,0,1,.418-.3,1.284,1.284,0,0,1,.6-.142,1.252,1.252,0,0,1,.914.363,1.292,1.292,0,0,1,.369.964,1.251,1.251,0,0,1-.4.967,1.422,1.422,0,0,1-1,.365,1.346,1.346,0,0,1-1.347-.871,2.886,2.886,0,0,1-.209-1.126,3.489,3.489,0,0,1,.133-1.045,1.7,1.7,0,0,1,.366-.662,1.476,1.476,0,0,1,1.112-.476,1.9,1.9,0,0,1,1.193.412l-.343.5a1.312,1.312,0,0,0-.357-.209,1.049,1.049,0,0,0-.4-.093" transform="translate(4.878 6.551)"/>
        </g>
        <path id="path-17" data-name="path" class="cls-4" d="M40.378-6.264H1.5v-.648H40.378Z" transform="translate(-1.014 70.045)"/>
        <path id="path-18" data-name="path" class="cls-4" d="M526.8-6.264H487.927v-.648H526.8Z" transform="translate(-329.725 70.045)"/>
      </g>
    </g>
  </g>
</svg>
