<svg xmlns="http://www.w3.org/2000/svg" viewBox="825.914 442.898 23.092 31.108">
  <defs>
    <style>
      .cls-1 {
        fill: #583318;
        stroke: #583318;
        stroke-width: 1px;
      }
    </style>
  </defs>
  <g id="noun_649672_cc" transform="translate(1223 616.654)">
    <path id="Path_1" data-name="Path 1" class="cls-1" d="M44.69,27.236H43.5V20.761a5.42,5.42,0,0,0-5.415-5.415H34.835a5.42,5.42,0,0,0-5.415,5.415v6.475H28.23a2.819,2.819,0,0,0-2.816,2.816V42.638a2.819,2.819,0,0,0,2.816,2.816H44.69a2.819,2.819,0,0,0,2.816-2.816V30.052A2.819,2.819,0,0,0,44.69,27.236Zm-13.1-6.475a3.252,3.252,0,0,1,3.249-3.249h3.249a3.252,3.252,0,0,1,3.249,3.249v6.475H31.587ZM45.34,42.638a.651.651,0,0,1-.65.65H28.23a.651.651,0,0,1-.65-.65V30.052a.651.651,0,0,1,.65-.65H44.69a.651.651,0,0,1,.65.65ZM36.46,32.531a2.017,2.017,0,0,0-1.191,3.648V39.3a1.191,1.191,0,1,0,2.382,0v-3.12a2.017,2.017,0,0,0-1.191-3.648Z" transform="translate(-422 -188.602)"/>
  </g>
</svg>
