<svg xmlns="http://www.w3.org/2000/svg" viewBox="827.671 392 18.657 19.661">
  <defs>
    <style>
      .cls-1 {
        fill: #583318;
      }
    </style>
  </defs>
  <g id="noun_24794_cc" transform="translate(787 351.83)">
    <path class="cls-1" d="M54.179,50.744a6.115,6.115,0,1,0-9.5-1.445c.082.144.171.282.273.435a6.227,6.227,0,0,0,.872,1.011A9.382,9.382,0,0,0,40.675,58.4,1.33,1.33,0,0,0,42,59.831H58A1.33,1.33,0,0,0,59.325,58.4,9.387,9.387,0,0,0,54.179,50.744Zm-5.712-1.361c-.092-.048-.182-.1-.273-.152a3.46,3.46,0,0,1-1.043-.99c-.056-.083-.111-.167-.16-.252a3.412,3.412,0,0,1-.449-1.7,3.458,3.458,0,1,1,3.463,3.457h-.012A3.4,3.4,0,0,1,48.467,49.383ZM43.594,57.17a6.726,6.726,0,0,1,6.4-4.764h.015a6.724,6.724,0,0,1,6.4,4.764Z"/>
  </g>
</svg>
